<svg width="13" height="13" viewBox="0 0 13 13" fill="none" xmlns="http://www.w3.org/2000/svg">
<path d="M12.3503 0.866667H10.8336V0.216667C10.8336 0.09685 10.7367 0 10.6169 0H9.10026C8.98044 0 8.88359 0.09685 8.88359 0.216667V0.866667H4.11693V0.216667C4.11693 0.09685 4.02008 0 3.90026 0H2.38359C2.26378 0 2.16693 0.09685 2.16693 0.216667V0.866667H0.65026C0.530444 0.866667 0.433594 0.963517 0.433594 1.08333V3.46667V12.7833C0.433594 12.9032 0.530444 13 0.65026 13H12.3503C12.4701 13 12.5669 12.9032 12.5669 12.7833V3.46667V1.08333C12.5669 0.963517 12.4701 0.866667 12.3503 0.866667ZM9.31693 0.433333H10.4003V1.08333V1.73333H9.31693V1.08333V0.433333ZM2.60026 0.433333H3.68359V1.08333V1.73333H2.60026V1.08333V0.433333ZM0.866927 1.3H2.16693V1.95C2.16693 2.06982 2.26378 2.16667 2.38359 2.16667H3.90026C4.02008 2.16667 4.11693 2.06982 4.11693 1.95V1.3H8.88359V1.95C8.88359 2.06982 8.98044 2.16667 9.10026 2.16667H10.6169C10.7367 2.16667 10.8336 2.06982 10.8336 1.95V1.3H12.1336V3.25H0.866927V1.3ZM0.866927 12.5667V3.68333H12.1336V12.5667H0.866927Z" fill="#333333"/>
<path d="M8.23428 4.9834H6.71761H6.28428H4.76761H4.33428H2.38428V6.9334V7.36673V8.8834V9.31673V11.2667H4.33428H4.76761H6.28428H6.71761H8.23428H8.66761H10.6176V9.31673V8.8834V7.36673V6.9334V4.9834H8.66761H8.23428ZM6.71761 5.41673H8.23428V6.9334H6.71761V5.41673ZM8.23428 8.8834H6.71761V7.36673H8.23428V8.8834ZM4.76761 7.36673H6.28428V8.8834H4.76761V7.36673ZM4.76761 5.41673H6.28428V6.9334H4.76761V5.41673ZM2.81761 5.41673H4.33428V6.9334H2.81761V5.41673ZM2.81761 7.36673H4.33428V8.8834H2.81761V7.36673ZM4.33428 10.8334H2.81761V9.31673H4.33428V10.8334ZM6.28428 10.8334H4.76761V9.31673H6.28428V10.8334ZM8.23428 10.8334H6.71761V9.31673H8.23428V10.8334ZM10.1843 10.8334H8.66761V9.31673H10.1843V10.8334ZM10.1843 8.8834H8.66761V7.36673H10.1843V8.8834ZM10.1843 5.41673V6.9334H8.66761V5.41673H10.1843Z" fill="#333333"/>
</svg>
