<svg width="19" height="19" viewBox="0 0 19 19" fill="none" xmlns="http://www.w3.org/2000/svg">
<path d="M8.59178 9.43662L0.1819 17.8465C-0.0517403 18.0801 -0.0517403 18.4586 0.1819 18.6923C0.298572 18.8093 0.45176 18.8674 0.604651 18.8674C0.757838 18.8674 0.910729 18.8093 1.0274 18.6923L9.50051 10.2192L17.9736 18.6923C18.0906 18.8093 18.2435 18.8674 18.3964 18.8674C18.5493 18.8674 18.7025 18.8093 18.8191 18.6923C19.0528 18.4586 19.0528 18.0801 18.8191 17.8465L10.4095 9.43662L18.8248 1.0208C19.0584 0.787164 19.0584 0.408648 18.8248 0.175008C18.5911 -0.0583359 18.2126 -0.0583359 17.9793 0.175008L9.50081 8.65405L1.02146 0.175305C0.787823 -0.0580391 0.409604 -0.0580391 0.175963 0.175305C-0.0576777 0.408945 -0.0576777 0.787461 0.175963 1.0211L8.59178 9.43662Z" fill="#616161"/>
</svg>
