<svg width="13" height="13" viewBox="0 0 13 13" fill="none" xmlns="http://www.w3.org/2000/svg">
<path d="M6.5 0C2.9159 0 0 2.9159 0 6.5C0 10.0841 2.9159 13 6.5 13C10.0841 13 13 10.0841 13 6.5C13 2.9159 10.0841 0 6.5 0ZM6.5 12.5667C3.15488 12.5667 0.433333 9.84512 0.433333 6.5C0.433333 3.15488 3.15488 0.433333 6.5 0.433333C9.84512 0.433333 12.5667 3.15488 12.5667 6.5C12.5667 9.84512 9.84512 12.5667 6.5 12.5667Z" fill="#333333"/>
<path d="M6.49974 1.2998C6.38014 1.2998 6.28307 1.39665 6.28307 1.51647V6.4998H3.03307C2.91347 6.4998 2.81641 6.59665 2.81641 6.71647C2.81641 6.83629 2.91347 6.93314 3.03307 6.93314H6.49974C6.61934 6.93314 6.71641 6.83629 6.71641 6.71647V1.51647C6.71641 1.39665 6.61934 1.2998 6.49974 1.2998Z" fill="#333333"/>
</svg>
