<svg width="156" height="146" viewBox="0 0 156 146" fill="none" xmlns="http://www.w3.org/2000/svg">
<path d="M84.0882 2.59424C44.628 2.59424 12.6392 34.5802 12.6392 74.0433C12.6392 113.5 44.628 145.489 84.0882 145.489C123.547 145.489 155.536 113.5 155.536 74.0433C155.536 34.5799 123.547 2.59424 84.0882 2.59424Z" fill="#FFF3F6"/>
<path d="M71.4491 -0.000488281C31.9888 -0.000488281 0 31.9854 0 71.4486C0 110.906 31.9888 142.894 71.4491 142.894C110.908 142.894 142.896 110.906 142.896 71.4486C142.896 31.9852 110.908 -0.000488281 71.4491 -0.000488281Z" fill="#FEEFEA"/>
<g clip-path="url(#clip0)">
<path d="M60.4852 103.703L60.4852 103.703C59.7437 104.491 58.4194 103.967 58.4194 102.884V89.8971C58.4194 89.3469 57.9734 88.9009 57.4232 88.9009H51.6624C45.2587 88.9009 40.0674 83.7097 40.0674 77.3059V50.9783C40.0674 44.5747 45.2585 39.3833 51.6624 39.3833H91.8035C98.2071 39.3833 103.398 44.5747 103.398 50.9783V77.3059C103.398 83.7096 98.2072 88.9009 91.8035 88.9009H74.837C74.5625 88.9009 74.2996 89.0142 74.1111 89.2148L60.4852 103.703Z" fill="#EC5569" stroke="#333333"/>
<path d="M85.3235 54.58C82.2527 51.5092 77.2739 51.5092 74.2029 54.58L72.4683 56.3146C72.0547 56.7282 71.384 56.7282 70.9704 56.3146L69.2635 54.6077C66.1927 51.5369 61.2139 51.5369 58.143 54.6077C55.0721 57.6785 55.0721 62.6573 58.143 65.7282L70.9714 78.5567C71.385 78.9703 72.0557 78.9703 72.4693 78.5567L85.3233 65.7005C88.3943 62.6296 88.3943 57.6509 85.3235 54.58Z" fill="#EC5569"/>
<path d="M85.3235 54.58C82.2527 51.5092 77.2739 51.5092 74.2029 54.58L72.4683 56.3146C72.0547 56.7282 71.384 56.7282 70.9704 56.3146L69.2635 54.6077C66.1927 51.5369 61.2139 51.5369 58.143 54.6077C55.0721 57.6785 55.0721 62.6573 58.143 65.7282L70.9714 78.5567C71.385 78.9703 72.0557 78.9703 72.4693 78.5567L85.3233 65.7005C88.3943 62.6296 88.3943 57.6509 85.3235 54.58Z" fill="#FFF5F5"/>
<path d="M62.2562 65.7284C59.1854 62.6576 59.1854 57.6788 62.2562 54.6079C63.2635 53.6006 64.4767 52.9259 65.7597 52.5795C63.131 51.8697 60.2063 52.5444 58.143 54.6079C55.0721 57.6787 55.0721 62.6575 58.143 65.7284L70.9714 78.5569C71.385 78.9705 72.0557 78.9705 72.4693 78.5569L73.7769 77.2491L62.2562 65.7284Z" fill="#FFF5F5"/>
</g>
<defs>
<clipPath id="clip0">
<rect width="65.6995" height="65.6995" fill="white" transform="translate(38.8833 38.8833)"/>
</clipPath>
</defs>
</svg>
