<svg width="156" height="146" viewBox="0 0 156 146" fill="none" xmlns="http://www.w3.org/2000/svg">
<path d="M84.0872 2.59473C44.627 2.59473 12.6382 34.5807 12.6382 74.0438C12.6382 113.501 44.627 145.489 84.0872 145.489C123.546 145.489 155.535 113.501 155.535 74.0438C155.535 34.5804 123.546 2.59473 84.0872 2.59473Z" fill="#FFF3F6"/>
<path d="M71.4491 -0.000488281C31.9888 -0.000488281 0 31.9854 0 71.4486C0 110.906 31.9888 142.894 71.4491 142.894C110.908 142.894 142.896 110.906 142.896 71.4486C142.896 31.9852 110.908 -0.000488281 71.4491 -0.000488281Z" fill="#FEEFEA"/>
<g clip-path="url(#clip0)">
<path d="M77.8938 77.8932L77.8938 77.8933C74.491 81.296 68.9748 81.2961 65.5731 77.8933L77.8938 77.8932ZM77.8938 77.8932C81.2954 74.4904 81.2954 68.9755 77.8938 65.5727C74.4921 62.1697 68.9758 62.1711 65.5732 65.5726C62.1703 68.9742 62.1703 74.4905 65.573 77.8932H77.8938ZM48.8581 48.8576C61.4919 36.2239 81.9739 36.2239 94.6076 48.8576C107.241 61.4914 107.241 81.9734 94.6076 94.6071C81.9739 107.241 61.4919 107.241 48.8581 94.6071C36.2244 81.9734 36.2244 61.4914 48.8581 48.8576Z" fill="#FFBE18" fill-opacity="0.95" stroke="#333333"/>
<path d="M62.9613 62.9608L62.9613 62.9607C67.8049 58.116 75.6597 58.1159 80.5045 62.9608C85.3494 67.8056 85.3494 75.6592 80.5045 80.504L80.5045 80.5041C75.6609 85.3488 67.8061 85.3489 62.9613 80.504L62.9612 80.504C58.1165 75.6604 58.1164 67.8056 62.9613 62.9608ZM68.8898 74.5743C70.46 76.1445 73.0044 76.1446 74.5747 74.5745L74.5748 74.5743C76.1452 73.0051 76.1449 70.4594 74.5748 68.8893C73.0046 67.3191 70.4601 67.3191 68.8898 68.8893C67.3195 70.4596 67.3195 73.0041 68.8898 74.5743Z" fill="#E7ECED" stroke="#333333"/>
<path d="M87.6877 99.8736L78.5949 83.242C79.526 82.6875 80.4085 82.0148 81.2122 81.2112C82.0155 80.4079 82.6891 79.5263 83.2434 78.5942L99.8746 87.6867C98.4697 90.1632 96.7188 92.4966 94.6082 94.6072C92.4975 96.7178 90.1642 98.4687 87.6877 99.8736Z" fill="#AC145A" stroke="#333333"/>
<path d="M55.7792 43.5913L64.872 60.2229C63.9409 60.7775 63.0584 61.4501 62.2547 62.2537C61.4514 63.0571 60.7778 63.9386 60.2234 64.8708L43.5923 55.7782C44.9972 53.3017 46.7481 50.9684 48.8587 48.8577C50.9694 46.7471 53.3027 44.9962 55.7792 43.5913Z" fill="#AC145A" stroke="#333333"/>
</g>
<defs>
<clipPath id="clip0">
<rect width="65.6995" height="65.6995" fill="white" transform="translate(38.8833 38.8828)"/>
</clipPath>
</defs>
</svg>
