<svg width="156" height="146" viewBox="0 0 156 146" fill="none" xmlns="http://www.w3.org/2000/svg">
<path d="M84.0868 2.59473C44.6265 2.59473 12.6377 34.5807 12.6377 74.0438C12.6377 113.501 44.6265 145.489 84.0868 145.489C123.545 145.489 155.534 113.501 155.534 74.0438C155.534 34.5804 123.545 2.59473 84.0868 2.59473Z" fill="#FFF3F6"/>
<path d="M71.4491 -0.000488281C31.9888 -0.000488281 0 31.9854 0 71.4486C0 110.906 31.9888 142.894 71.4491 142.894C110.908 142.894 142.896 110.906 142.896 71.4486C142.896 31.9852 110.908 -0.000488281 71.4491 -0.000488281Z" fill="#FEEFEA"/>
<g clip-path="url(#clip0)">
<path d="M99.7516 47.8291L99.7529 47.832C99.9004 48.1454 99.839 48.5183 99.5982 48.7694C94.2415 54.3486 85.7914 57.6907 75.0959 58.359L75.0959 58.3588L75.0826 58.36C75.0826 58.36 75.0802 58.3601 75.0745 58.3603C75.0667 58.3604 75.058 58.3604 75.0436 58.3604C74.8285 58.3604 74.6233 58.279 74.4724 58.1347L74.4724 58.1347L74.4676 58.1302C74.299 57.9732 74.2031 57.7521 74.2031 57.52V49.6092C74.2031 49.1447 74.5799 48.7682 75.0436 48.7682C81.6031 48.7682 97.4252 47.4598 97.7636 47.4311L98.9321 47.3484L98.9412 47.3478L98.9503 47.3468C99.2663 47.3127 99.6007 47.5031 99.7516 47.8291Z" fill="#F44336" stroke="#333333"/>
<path d="M43.2227 47.4581L43.2276 47.4585C46.4398 47.7154 60.7945 48.7687 66.9993 48.7687C67.4636 48.7687 67.8403 49.1453 67.8403 49.6096V57.5204C67.8403 57.7525 67.7444 57.9736 67.5758 58.1306L67.5758 58.1306L67.571 58.1352C67.4202 58.2794 67.215 58.3609 66.9993 58.3609C66.9853 58.3609 66.9767 58.3609 66.9689 58.3607C66.9633 58.3606 66.9609 58.3604 66.9609 58.3604L66.9545 58.3598L66.9473 58.3594C59.5917 57.9031 49.4603 55.8743 42.5612 48.8857C42.3131 48.6341 42.2489 48.2581 42.3975 47.9425L42.3975 47.9425L42.3992 47.9389C42.5487 47.6148 42.869 47.4263 43.2227 47.4581Z" fill="#F44336" stroke="#333333"/>
<path d="M67.6026 43.4868L67.6039 43.4874C67.9864 43.6711 68.1717 44.108 68.038 44.5084L68.0371 44.5109C67.9112 44.8945 67.8403 45.2496 67.8403 45.587V49.6094C67.8403 50.0731 67.4638 50.4499 66.9994 50.4499C60.754 50.4499 46.3343 49.3928 43.093 49.1322L43.0905 49.132C42.8935 49.1171 42.7065 49.0309 42.5631 48.8898C42.5628 48.8895 42.5624 48.8891 42.562 48.8887L42.2855 48.6122L42.2855 48.6121L42.2804 48.6072C42.0369 48.3705 41.9584 48.016 42.0797 47.6989L42.0799 47.6985C42.199 47.3865 42.495 47.1727 42.831 47.159C46.198 47.0303 48.5863 45.4439 50.9823 43.8523L51.0258 43.8234L51.026 43.8233C53.3945 42.2485 55.7084 40.7236 58.7134 40.7236C62.3782 40.7236 64.753 41.9859 66.5413 42.9415L66.5444 42.9431C66.583 42.9634 66.6216 42.9837 66.66 43.0039C66.9829 43.1737 67.2967 43.3388 67.6026 43.4868Z" fill="#E53935" stroke="#333333"/>
<path d="M99.9649 47.7005L99.9646 47.6998C99.8437 47.3859 99.5479 47.1754 99.2131 47.162C95.8382 47.0325 93.4467 45.4395 91.047 43.841L91.0207 43.8234C88.6489 42.2485 86.3355 40.7236 83.3305 40.7236C79.6658 40.7236 77.291 41.9859 75.5026 42.9415L75.5008 42.9425L75.5008 42.9425C75.4667 42.9605 75.4326 42.9785 75.3986 42.9966C75.073 43.1689 74.7508 43.3396 74.4393 43.4878M99.9649 47.7005L74.2236 43.0367M99.9649 47.7005C100.019 47.8414 100.033 47.9915 100.009 48.135L99.5362 47.6509L98.7951 48.3213L99.3134 48.9405C99.1988 48.9967 99.1056 49.0228 99.0485 49.0273C99.0482 49.0273 99.0479 49.0273 99.0476 49.0274L97.8971 49.1077L97.8971 49.1077L97.8903 49.1082C97.2399 49.1626 81.7008 50.4499 75.0441 50.4499C74.5803 50.4499 74.2036 50.0733 74.2036 49.6094V45.587C74.2036 45.2495 74.1327 44.894 74.0037 44.509M99.9649 47.7005L73.5293 44.6669M74.4393 43.4878C74.439 43.4879 74.4387 43.4881 74.4384 43.4882L74.2236 43.0367M74.4393 43.4878C74.4395 43.4877 74.4397 43.4876 74.4399 43.4875L74.2236 43.0367M74.4393 43.4878C74.057 43.6716 73.8715 44.1082 74.0037 44.509M74.2236 43.0367C73.6147 43.3288 73.3172 44.0261 73.5293 44.6669M74.0037 44.509C74.0036 44.5086 74.0035 44.5083 74.0034 44.5079L73.5293 44.6669M74.0037 44.509C74.0038 44.5092 74.0039 44.5095 74.004 44.5097L73.5293 44.6669" fill="#E53935" stroke="#333333"/>
<path d="M74.5437 45.5869V64.358H75.0437H75.5437C75.5437 63.3238 75.99 62.388 76.713 61.7585L76.7185 61.7538L76.7238 61.7488C77.3328 61.1866 78.1515 60.8356 79.0661 60.8356C80.9894 60.8356 82.5385 62.3564 82.5885 64.2837V67.0394H83.0885H83.5885C83.5885 66.0053 84.0347 65.07 84.7579 64.4399L84.7633 64.4352L84.7685 64.4304C85.3777 63.8684 86.1964 63.517 87.1109 63.517C89.0342 63.517 90.5834 65.0379 90.6334 66.9652V69.7214H91.1334H91.6334C91.6334 68.6871 92.0796 67.7514 92.8027 67.1219L92.8082 67.1171L92.8135 67.1122C93.4225 66.5499 94.2411 66.199 95.1558 66.199C97.1054 66.199 98.6782 67.7717 98.6782 69.7214V86.1862C98.6782 95.3229 91.2599 102.741 82.1232 102.741C77.7237 102.741 73.5065 100.997 70.4095 97.8999L51.6288 79.1192C54.4034 76.7111 58.6465 76.8248 61.2824 79.4603L63.4541 81.6325L63.4542 81.6325C64.9471 83.1255 67.4989 82.0758 67.4989 79.965V45.5869C67.4989 43.6372 69.0716 42.0645 71.0213 42.0645C72.9709 42.0645 74.5437 43.6372 74.5437 45.5869Z" fill="#FFCC80" stroke="#333333"/>
</g>
<defs>
<clipPath id="clip0">
<rect width="64.3587" height="64.3587" fill="white" transform="translate(38.8833 40.2236)"/>
</clipPath>
</defs>
</svg>
