<svg width="38" height="38" viewBox="0 0 38 38" fill="none" xmlns="http://www.w3.org/2000/svg">
<circle cx="19" cy="19" r="19" fill="#FEFCFC"/>
<g clip-path="url(#clip0)">
<path d="M25.3662 27.0686C24.0525 22.9085 27.133 20.44 26.4532 15.4084C25.7731 10.3768 21.6027 10.0522 18.7113 10.0522C15.8197 10.0522 11.6492 10.3768 10.9692 15.4084C10.2893 20.44 13.3698 22.9083 12.0561 27.0686" fill="#FFBF3E"/>
<path d="M14.0913 15.4081C13.6856 20.4397 15.5232 22.9079 14.7395 27.0684H12.0554C13.3691 22.9079 10.2885 20.4397 10.9685 15.4081C11.6421 10.4236 15.7414 10.0582 18.6289 10.0522C16.9081 10.0632 14.4906 10.4547 14.0913 15.4081Z" fill="#E8A328"/>
<path d="M24.7965 29.6334V30.3999H12.6257V29.6334C12.6257 26.2727 15.3501 23.5479 18.7109 23.5479C19.1863 23.5479 19.6492 23.6026 20.0935 23.7056C21.219 23.9671 22.2244 24.5411 23.0142 25.3302C24.1151 26.4317 24.7965 27.9531 24.7965 29.6334Z" fill="#E22B2B"/>
<path d="M24.7957 29.6338V30.4003H15.3901V29.6338C15.3901 26.7487 17.3982 24.332 20.0926 23.7061C21.2181 23.9675 22.2235 24.5415 23.0133 25.3306C24.1143 26.4321 24.7957 27.9535 24.7957 29.6338Z" fill="#F94141"/>
<path d="M15.6794 25.5586C15.7402 26.297 16.0652 26.9606 16.5597 27.4547C17.1105 28.0056 17.871 28.346 18.7111 28.346C20.3053 28.346 21.6136 27.1194 21.7427 25.5586" fill="#FFD0A6"/>
<path d="M24.7966 17.6742V20.2812C24.7966 23.2467 22.6752 25.7166 19.8669 26.2566C19.493 26.3287 19.1063 26.3662 18.711 26.3662C15.3503 26.3662 12.626 23.6419 12.626 20.2812V17.8555C12.626 17.8555 13.9292 17.5998 14.9373 16.8269C15.5724 16.3402 16.09 15.6483 16.0914 14.6855C16.0914 14.7975 16.1753 17.6742 24.7966 17.6742Z" fill="#E8B182"/>
<path d="M24.7963 17.6742V20.2812C24.7963 23.2467 22.6748 25.7166 19.8666 26.2566C17.0584 25.7166 14.937 23.2467 14.937 20.2812V16.8269C15.5721 16.3402 16.0897 15.6483 16.0911 14.6855C16.0911 14.7975 16.175 17.6742 24.7963 17.6742Z" fill="#FFD0A6"/>
<path d="M18.711 23.0434C18.0172 23.0434 17.3235 22.7794 16.7954 22.2513C16.6626 22.1185 16.6626 21.9032 16.7954 21.7705C16.9281 21.6377 17.1434 21.6377 17.2762 21.7705C18.0671 22.5616 19.3545 22.5616 20.1456 21.7705C20.2784 21.6377 20.4937 21.6377 20.6264 21.7705C20.7592 21.9032 20.7592 22.1185 20.6264 22.2513C20.0984 22.7794 19.4047 23.0434 18.711 23.0434Z" fill="#F94141"/>
<path d="M17.2696 19.6365C17.1825 19.6365 17.0956 19.6032 17.0291 19.5369C16.7338 19.2415 16.3411 19.0788 15.9233 19.0788C15.5055 19.0788 15.1128 19.2415 14.8174 19.5369C14.6848 19.6697 14.4695 19.6697 14.3368 19.5369C14.2038 19.4042 14.2038 19.1889 14.3368 19.0561C14.7606 18.6323 15.3239 18.3989 15.9233 18.3989C16.5228 18.3989 17.0861 18.6323 17.5099 19.0561C17.6427 19.1889 17.6427 19.4042 17.5099 19.5369C17.4436 19.6032 17.3565 19.6365 17.2696 19.6365Z" fill="#D69B70"/>
<path d="M22.8442 19.6364C22.7573 19.6364 22.6702 19.6031 22.6039 19.5368C21.994 18.9272 21.002 18.927 20.3921 19.5368C20.2594 19.6696 20.0441 19.6696 19.9113 19.5368C19.7786 19.4041 19.7786 19.1888 19.9113 19.056C20.7862 18.1812 22.2098 18.1812 23.0847 19.056C23.2174 19.1888 23.2174 19.4041 23.0847 19.5368C23.0182 19.6031 22.9313 19.6364 22.8442 19.6364Z" fill="#D69B70"/>
<path d="M31.6034 13.2913C31.6034 10.5137 29.3646 8.259 26.5931 8.23313C23.816 8.20742 21.5175 10.4575 21.4869 13.2346C21.4668 15.0723 22.4268 16.687 23.8765 17.5889C24.1852 17.781 24.3352 18.1495 24.241 18.5006L24.0558 19.19C23.9538 19.5696 24.3683 19.8786 24.703 19.6725L25.6565 19.0849C26.3047 18.6855 27.0101 18.3856 27.7498 18.205C29.9617 17.6645 31.6034 15.6698 31.6034 13.2913Z" fill="#E4E4EF"/>
<path d="M26.5457 11.8714C27.2156 10.7701 28.5337 11.2299 28.8121 12.1139C29.2017 13.3513 28.542 14.8303 26.5457 15.7251C24.5494 14.8303 23.8897 13.3515 24.2793 12.1139C24.5577 11.2299 25.8758 10.7701 26.5457 11.8714Z" fill="#F94141"/>
<path d="M23.3194 21.2479H22.564C22.3761 21.2479 22.2239 21.0957 22.2239 20.908C22.2239 20.7202 22.3761 20.5679 22.564 20.5679H23.3194C23.5072 20.5679 23.6594 20.7202 23.6594 20.908C23.6594 21.0957 23.5072 21.2479 23.3194 21.2479Z" fill="#F94141"/>
<path d="M14.858 21.2479H14.1025C13.9147 21.2479 13.7625 21.0957 13.7625 20.908C13.7625 20.7202 13.9147 20.5679 14.1025 20.5679H14.858C15.0459 20.5679 15.1979 20.7202 15.1979 20.908C15.1979 21.0957 15.0459 21.2479 14.858 21.2479Z" fill="#F94141"/>
</g>
<defs>
<clipPath id="clip0">
<rect width="22.1667" height="22.1667" fill="white" transform="translate(10.1333 8.2334)"/>
</clipPath>
</defs>
</svg>
