<svg width="39" height="39" viewBox="0 0 39 39" fill="none" xmlns="http://www.w3.org/2000/svg">
<g clip-path="url(#clip0)">
<path d="M38.9997 19.4009C39.0527 30.0159 30.5289 38.7733 19.916 38.9955C18.45 39.0262 17.0202 38.8941 15.6426 38.6174C14.9612 38.4805 14.4727 37.8783 14.4727 37.1829C14.4727 36.4197 13.8538 35.8008 13.0903 35.8008H9.21442C8.9371 35.8008 8.66634 35.7166 8.43812 35.5592C6.42224 34.1681 4.681 32.4079 3.31258 30.3753C3.13852 30.1171 3.04688 29.8118 3.04688 29.4999V25.309C3.04688 24.3726 2.28754 23.6133 1.35116 23.6133C0.808731 23.6133 0.348129 23.219 0.259758 22.6837C0.0892639 21.6477 0 20.5843 0 19.5C0 8.73031 8.73031 0 19.5 0C30.2364 0 38.9464 8.67675 38.9997 19.4009Z" fill="#FEEFEA"/>
<path d="M16.2398 3.99218C16.2898 3.83121 16.3386 3.67976 16.371 3.58781C16.823 2.3042 17.4359 1.11818 18.1801 0.0455246C18.6163 0.0163651 19.0564 0 19.5 0C19.647 0 19.7937 0.00238037 19.9398 0.00565339C18.9846 1.17828 18.2128 2.52795 17.6826 4.02461C17.6522 4.11031 17.6067 4.25253 17.5591 4.40488C17.4469 4.76431 17.067 4.96783 16.7054 4.86221C16.3344 4.7536 16.1246 4.36173 16.2398 3.99218ZM38.9949 19.0882C35.6636 21.7938 31.1028 22.8664 26.6429 21.5608C23.2708 20.5738 20.5753 18.3896 18.8814 15.6075L19.5479 15.2424C19.7684 15.1213 19.7559 14.8003 19.5262 14.697L17.3717 13.73C17.1872 13.6473 16.9747 13.7636 16.9453 13.9636L16.6007 16.2999C16.5638 16.5489 16.8277 16.7325 17.0485 16.6117L17.668 16.2722C19.5342 19.3667 22.521 21.7971 26.2629 22.8899C30.7609 24.2039 35.3798 23.3032 38.9542 20.8288C38.9836 20.3897 39 19.9466 39 19.5C39 19.3622 38.9976 19.2251 38.9949 19.0882ZM20.8175 35.7068C20.4569 35.5979 20.0755 35.7978 19.9597 36.1563C19.9106 36.3081 19.8636 36.45 19.8327 36.5354C19.5164 37.4028 19.1182 38.2195 18.6511 38.9804C18.9326 38.9926 19.2155 39 19.5 39C19.7493 39 19.9975 38.9938 20.2445 38.9845C20.5872 38.3487 20.8875 37.6813 21.1404 36.9844C21.1737 36.8925 21.2237 36.7416 21.2752 36.5809C21.3936 36.2129 21.1877 35.8186 20.8175 35.7068ZM20.6619 26.6036L21.0282 24.2706C21.0672 24.0218 20.805 23.8358 20.5834 23.9549L19.9606 24.2884C18.123 21.177 15.1591 18.7192 11.4273 17.5915C7.46455 16.3942 3.39173 16.9235 0.0160675 18.7463C0.00654602 18.9963 0 19.2474 0 19.5C0 19.7758 0.00714111 20.0499 0.0184479 20.323C3.19505 18.3741 7.16164 17.7442 11.0351 18.9171C14.3977 19.9353 17.0729 22.144 18.741 24.9418L18.0712 25.301C17.8492 25.4197 17.859 25.741 18.0878 25.8464L20.2335 26.8333C20.417 26.9178 20.6304 26.8033 20.6619 26.6036ZM21.1362 27.8408C20.7839 27.7346 20.4123 27.9337 20.3058 28.2859C20.1992 28.6382 20.3986 29.0102 20.7509 29.1164C21.1032 29.2229 21.4748 29.0236 21.5813 28.6713C21.6879 28.3193 21.4885 27.9473 21.1362 27.8408ZM20.825 30.4568C20.6961 30.8017 20.8711 31.1855 21.2157 31.3144C21.5602 31.4432 21.9443 31.2686 22.0732 30.9237C22.202 30.5791 22.0271 30.1953 21.6825 30.0665C21.3379 29.9373 20.9541 30.1123 20.825 30.4568ZM21.7364 31.9282C21.3918 31.7994 21.008 31.9743 20.8791 32.3189C20.75 32.6635 20.9249 33.0476 21.2695 33.1764C21.6144 33.3053 21.9982 33.1303 22.127 32.7857C22.2559 32.4412 22.0812 32.0574 21.7364 31.9282ZM21.5239 33.8712C21.1794 33.7421 20.7952 33.917 20.6664 34.2616C20.5375 34.6061 20.7125 34.9903 21.0571 35.1191C21.4016 35.2479 21.7858 35.073 21.9146 34.7284C22.0434 34.3839 21.8685 34 21.5239 33.8712ZM16.4597 12.7308C16.8129 12.8338 17.1827 12.6311 17.286 12.278C17.3889 11.9248 17.1863 11.5546 16.8331 11.4517C16.4799 11.3484 16.1101 11.551 16.0068 11.9042C15.9036 12.2574 16.1062 12.6276 16.4597 12.7308ZM16.7465 10.1118C16.8721 9.76607 16.6935 9.38372 16.3478 9.25816C16.002 9.13229 15.6197 9.31082 15.4941 9.65657C15.3683 10.0023 15.5468 10.3847 15.8925 10.5102C16.2383 10.6361 16.6206 10.4579 16.7465 10.1118ZM15.8214 8.64908C16.1672 8.77464 16.5495 8.59641 16.6754 8.25037C16.801 7.90462 16.6227 7.52227 16.2767 7.39671C15.9309 7.27114 15.5486 7.44937 15.423 7.79512C15.2972 8.14117 15.4757 8.52322 15.8214 8.64908ZM16.016 6.70432C16.3621 6.83018 16.7441 6.65165 16.87 6.3059C16.9956 5.96015 16.8173 5.5778 16.4713 5.45194C16.1255 5.32638 15.7432 5.50491 15.6176 5.85065C15.4918 6.1964 15.6703 6.57875 16.016 6.70432Z" fill="#88B9D3"/>
<path d="M15.75 38.6382C13.0439 38.111 10.5382 37.0246 8.3575 35.5033C9.47955 35.1156 10.4061 34.214 10.7757 32.9908C11.3874 30.966 10.2419 28.8284 8.21706 28.2164C6.24016 27.6192 4.15704 28.6969 3.48964 30.6322C1.85313 28.2827 0.720375 25.5563 0.248169 22.6091C0.483826 22.6615 0.711449 22.765 0.91259 22.9218L1.47763 23.3613C1.98495 23.0266 2.52083 22.738 3.07903 22.4978L3.00999 21.8248C2.924 20.9878 3.47298 20.2174 4.29212 20.0252C5.09401 19.8375 5.91345 20.2612 6.2235 21.0241L6.49188 21.6849C7.09233 21.6483 7.70111 21.665 8.31227 21.7382L8.5881 21.1226C8.93206 20.3549 9.79286 19.9622 10.5983 20.2055C11.3868 20.4439 11.8843 21.2205 11.7712 22.0361L11.6734 22.7442C12.2244 23.0185 12.7424 23.3384 13.2242 23.6984L13.7699 23.3039C14.4518 22.8109 15.3936 22.9013 15.9696 23.5146C16.5332 24.115 16.5757 25.0365 16.0702 25.6866L15.6304 26.2517C15.9652 26.7587 16.2541 27.2946 16.4942 27.8528L17.1673 27.7838C18.0042 27.6978 18.7746 28.247 18.9665 29.0662C19.1546 29.8678 18.7309 30.6872 17.9677 30.9973L17.3071 31.2656C17.3434 31.8661 17.3267 32.4749 17.2535 33.086L17.8692 33.3619C18.6368 33.7061 19.0296 34.5669 18.7862 35.3721C18.5482 36.1606 17.7716 36.6581 16.9557 36.5453L16.2478 36.4471C15.9732 36.9982 15.6533 37.5162 15.2936 37.9979L15.6881 38.5439C15.7105 38.5749 15.7301 38.6067 15.75 38.6382Z" fill="#FDBF43"/>
<path d="M10.7755 32.9906C11.3875 30.9655 10.242 28.8279 8.21688 28.2162C6.24028 27.619 4.15686 28.6967 3.48946 30.6319C2.85152 29.7161 2.29035 28.7431 1.81458 27.7216C3.47786 25.6067 6.32508 24.6132 9.05626 25.4386C12.6155 26.5139 14.6287 30.271 13.5534 33.83C13.1371 35.2082 12.3183 36.3541 11.2652 37.1792C10.2447 36.7031 9.27258 36.1416 8.35762 35.5031C9.47937 35.1154 10.4059 34.2138 10.7755 32.9906Z" fill="#FDA800"/>
<path d="M2.96221 29.8324C2.53851 29.1555 2.15437 28.4512 1.81458 27.7219C3.06695 26.1294 4.99029 25.1734 7.02997 25.1499C5.18548 25.8807 3.67989 27.416 3.06129 29.4631C3.0241 29.586 2.99197 29.7092 2.96221 29.8324Z" fill="#FC9302"/>
<path d="M21.7202 0.126465C21.3813 0.692696 21.4007 1.42377 21.8089 1.9778L22.2085 2.51993C21.8529 3.00493 21.5378 3.52623 21.2686 4.07967L20.5598 3.98802C19.743 3.88269 18.9709 4.38763 18.74 5.17791C18.5044 5.98575 18.9049 6.84268 19.6758 7.1798L20.2941 7.44997C20.2263 8.06173 20.2153 8.67051 20.2572 9.27066L19.599 9.54529C18.8391 9.86248 18.4228 10.6855 18.6183 11.4856C18.8177 12.303 19.5934 12.8448 20.4295 12.7514L21.1019 12.6758C21.3468 13.2319 21.6408 13.7651 21.9803 14.2691L21.5459 14.838C21.0463 15.4927 21.0975 16.4139 21.6664 17.0089C22.2481 17.6171 23.1907 17.6987 23.8679 17.1994L24.4101 16.7998C24.8951 17.1553 25.4161 17.4704 25.9695 17.7397L25.8782 18.4485C25.7728 19.2655 26.2775 20.0374 27.068 20.2683C27.8756 20.5042 28.7328 20.1034 29.0699 19.3325L29.3401 18.7145C29.9519 18.782 30.5606 18.793 31.1608 18.7511L31.4354 19.4093C31.7523 20.1692 32.5756 20.5855 33.3757 20.3903C34.1931 20.1906 34.7349 19.4152 34.6415 18.5791L34.5659 17.9066C35.122 17.6615 35.6552 17.3675 36.1593 17.0283L36.7282 17.4627C37.3771 17.9578 38.287 17.9111 38.8824 17.3565C37.8949 8.32535 30.741 1.14913 21.7202 0.126465ZM34.1258 9.63307C33.5328 11.6638 31.406 12.829 29.3752 12.236C27.3448 11.6427 26.1793 9.51584 26.7726 7.48508C27.3656 5.45463 29.4927 4.28944 31.5232 4.88245C33.5537 5.47575 34.7191 7.60261 34.1258 9.63307Z" fill="#F18BC3"/>
<path d="M28.4003 2.14551C26.3425 2.80487 24.6381 4.44108 23.9868 6.67149C22.9442 10.2406 24.9922 13.9786 28.5613 15.0212C32.075 16.0475 35.7527 14.0783 36.8604 10.6113C34.9978 6.98034 32.0298 4.01053 28.4003 2.14551ZM33.2188 9.36815C32.7719 10.8978 31.1696 11.7759 29.6396 11.329C28.1099 10.8821 27.2322 9.27978 27.6791 7.74979C28.1257 6.22011 29.7283 5.34235 31.258 5.78926C32.7876 6.23588 33.6654 7.83846 33.2188 9.36815Z" fill="#E659A9"/>
<path d="M31.2898 15.2396C30.401 15.3521 29.4756 15.2884 28.5613 15.0212C24.9922 13.9786 22.9442 10.2403 23.9868 6.67149C24.6381 4.44108 26.3425 2.80457 28.4003 2.14551C28.6434 2.27018 28.8829 2.40021 29.1198 2.535C27.5008 3.34313 26.2098 4.79724 25.6626 6.67149C24.62 10.2403 26.668 13.9786 30.2371 15.0209C30.5873 15.1236 30.939 15.1956 31.2898 15.2396Z" fill="#DF3D9B"/>
<path d="M13.3007 9.05333C13.3016 8.72574 13.2724 8.4026 13.2156 8.0872L13.5483 7.90421C13.9324 7.69265 14.1053 7.23294 13.9562 6.82055C13.8035 6.39922 13.3617 6.15702 12.9246 6.25461L12.5729 6.33316C12.4113 6.05288 12.2251 5.78746 12.0165 5.5402L12.2138 5.21379C12.4405 4.83859 12.3604 4.35389 12.0251 4.07151C11.6823 3.78319 11.1786 3.7942 10.8486 4.0971L10.5847 4.3399C10.3074 4.17952 10.0134 4.04265 9.70485 3.93197L9.71258 3.5514C9.72151 3.11282 9.40998 2.73315 8.97824 2.65638C8.53698 2.57813 8.10643 2.83937 7.97223 3.26695L7.86482 3.60972C7.53692 3.60913 7.21408 3.63799 6.89869 3.69482L6.7154 3.36216C6.50384 2.97803 6.04413 2.80516 5.63203 2.95423C5.2107 3.10687 4.9682 3.54873 5.0661 3.98582L5.14435 4.33752C4.86436 4.49909 4.59895 4.68535 4.35169 4.89393L4.02528 4.69666C3.65007 4.46993 3.16537 4.54997 2.883 4.8853C2.59438 5.22808 2.60539 5.73182 2.90859 6.0615L3.15139 6.32573C2.99101 6.60304 2.85414 6.89672 2.74345 7.20527L2.36289 7.19754C1.9243 7.18891 1.54464 7.50044 1.46787 7.93218C1.38932 8.37344 1.65086 8.80399 2.07814 8.93818L2.42091 9.0456C2.42031 9.37349 2.44947 9.69633 2.50631 10.0117L2.17365 10.1947C1.78952 10.4063 1.61634 10.866 1.76571 11.2784C1.91835 11.6997 2.35991 11.9419 2.79731 11.8443L3.14901 11.7658C3.31057 12.0461 3.49684 12.3115 3.70542 12.5587L3.50814 12.8848C3.28112 13.2603 3.36145 13.7447 3.69679 14.0271C4.03956 14.3157 4.54331 14.3047 4.87299 14.0015L5.13721 13.759C5.41452 13.9194 5.7085 14.0563 6.01676 14.167L6.00902 14.5475C6.00039 14.9858 6.31192 15.3658 6.74366 15.4425C7.18463 15.5208 7.61547 15.2596 7.74967 14.832L7.85708 14.4892C8.18468 14.4898 8.50782 14.4609 8.82322 14.4041L9.00621 14.7368C9.21776 15.1209 9.67747 15.2938 10.0899 15.1444C10.5109 14.9921 10.7534 14.5502 10.6558 14.1131L10.5773 13.7614C10.8572 13.5995 11.123 13.4136 11.3702 13.205L11.6963 13.402C12.0718 13.629 12.5562 13.549 12.8386 13.2136C13.1272 12.8709 13.1162 12.3671 12.813 12.0371L12.5705 11.7732C12.7309 11.4959 12.8678 11.2019 12.9785 10.8934L13.359 10.9011C13.7973 10.91 14.177 10.5985 14.254 10.1668C14.3323 9.72549 14.071 9.29494 13.6435 9.16075L13.3007 9.05333ZM9.86909 9.40682C9.67182 10.5158 8.61255 11.2549 7.5036 11.0576C6.39464 10.8603 5.65554 9.80137 5.85281 8.69211C6.05008 7.58316 7.10935 6.84405 8.2183 7.04133C9.32726 7.2386 10.0664 8.29786 9.86909 9.40682Z" fill="#0ED1B2"/>
<path d="M8.52654 5.31225C6.46275 4.94508 4.4918 6.32034 4.12463 8.38412C3.75746 10.4479 5.13272 12.4189 7.1965 12.786C9.26029 13.1532 11.2312 11.7779 11.5984 9.71416C11.9656 7.65037 10.5903 5.67943 8.52654 5.31225ZM10.4222 9.50468C10.1705 10.9192 8.82021 11.8616 7.40598 11.6098C5.99144 11.3581 5.04911 10.0078 5.30083 8.5936C5.55256 7.17936 6.90282 6.23673 8.31706 6.48846C9.7316 6.74018 10.6739 8.09045 10.4222 9.50468Z" fill="#0AB59E"/>
<path d="M8.46256 12.7968C8.05374 12.8622 7.62735 12.8625 7.1965 12.7858C5.13272 12.4186 3.75746 10.4476 4.12463 8.38386C4.48764 6.34388 6.41753 4.97784 8.45542 5.30128C6.90491 5.54973 5.60998 6.75092 5.31928 8.38386C5.28387 8.5844 5.26513 8.78376 5.26126 8.98103C5.26007 9.02953 5.26007 9.07803 5.26126 9.12594C5.29548 10.9011 6.57731 12.4629 8.39145 12.7858C8.41525 12.7899 8.43876 12.7929 8.46256 12.7968Z" fill="#01988C"/>
<path d="M34.4505 32.0183C34.0723 31.3739 33.4254 30.8924 32.6322 30.7514C31.1935 30.4952 29.8198 31.4539 29.5636 32.8925C29.3788 33.9313 29.8272 34.9358 30.6321 35.5106C29.3824 36.3813 28.0265 37.1097 26.5869 37.6714C26.3926 37.42 26.2153 37.1555 26.0561 36.88L25.6 36.9817C25.0329 37.1085 24.4598 36.794 24.2619 36.2474C24.0682 35.7127 24.2926 35.1164 24.7909 34.8418L25.2224 34.6043C25.1489 34.1952 25.1111 33.7762 25.112 33.3511L24.6672 33.2118C24.1128 33.0377 23.7736 32.4789 23.8754 31.9068C23.9751 31.3468 24.4678 30.9424 25.0364 30.954L25.5301 30.9638C25.6738 30.5639 25.8514 30.1825 26.0591 29.8227L25.7443 29.4803C25.3512 29.0524 25.3369 28.399 25.7113 27.9545C26.0775 27.5191 26.7063 27.4153 27.193 27.7096L27.6161 27.9655C27.9369 27.695 28.2815 27.4534 28.6448 27.2436L28.543 26.7875C28.4165 26.2204 28.7308 25.6473 29.2774 25.4494C29.812 25.2557 30.4083 25.4801 30.683 25.9784L30.9204 26.4099C31.3295 26.3364 31.7485 26.2986 32.1737 26.2995L32.3132 25.8547C32.487 25.3003 33.0458 24.9611 33.618 25.0629C34.1779 25.1626 34.5823 25.6553 34.5707 26.2239L34.5609 26.7176C34.9611 26.8613 35.3422 27.0389 35.702 27.2469L36.0444 26.9321C36.4667 26.5441 37.1076 26.5256 37.5518 26.8845C36.7839 28.7599 35.7326 30.489 34.4505 32.0183Z" fill="#7ECD00"/>
<path d="M35.6618 30.4104C35.2851 30.9674 34.8811 31.5042 34.4505 32.0184C34.072 31.3739 33.4252 30.8925 32.6319 30.7511C31.1933 30.4952 29.8195 31.4539 29.5633 32.8926C29.3785 33.9313 29.8269 34.9358 30.6321 35.5107C30.0938 35.8856 29.535 36.2322 28.9593 36.5524C28.0167 35.7154 27.4219 34.4949 27.4219 33.1348C27.4219 30.6107 29.4681 28.5645 31.9922 28.5645C33.4954 28.5645 34.8287 29.2905 35.6618 30.4104Z" fill="#6BAE01"/>
<path d="M29.79 36.0641C29.5175 36.2331 29.2405 36.3962 28.9593 36.5524C28.0167 35.7154 27.4219 34.4949 27.4219 33.1348C27.4219 30.6107 29.4681 28.5645 31.9922 28.5645C32.2127 28.5645 32.4287 28.5817 32.6408 28.6121C30.4274 28.9301 28.726 30.8332 28.726 33.1348C28.726 34.25 29.1265 35.2709 29.79 36.0641Z" fill="#5A9001"/>
</g>
<defs>
<clipPath id="clip0">
<rect width="39" height="39" fill="white"/>
</clipPath>
</defs>
</svg>
