<svg width="39" height="39" viewBox="0 0 39 39" fill="none" xmlns="http://www.w3.org/2000/svg">
<circle cx="19.5" cy="19.5" r="19.5" fill="#FEFCFC"/>
<path d="M21.2544 4.87512C20.5287 4.87512 19.9382 4.28461 19.9382 3.55887C19.9382 3.31657 19.7417 3.12012 19.4994 3.12012C19.2571 3.12012 19.0607 3.31657 19.0607 3.55887C19.0607 4.28461 18.4702 4.87512 17.7444 4.87512C17.5021 4.87512 17.3057 5.07157 17.3057 5.31387C17.3057 5.55617 17.5021 5.75262 17.7444 5.75262C18.4702 5.75262 19.0607 6.34312 19.0607 7.06887C19.0607 7.31117 19.2571 7.50762 19.4994 7.50762C19.7417 7.50762 19.9382 7.31117 19.9382 7.06887C19.9382 6.34312 20.5287 5.75262 21.2544 5.75262C21.4967 5.75262 21.6932 5.55617 21.6932 5.31387C21.6932 5.07157 21.4967 4.87512 21.2544 4.87512Z" fill="#FCDE76"/>
<path d="M30.4678 10.5782C29.742 10.5782 29.1515 9.98774 29.1515 9.26199C29.1515 9.01969 28.9551 8.82324 28.7128 8.82324C28.4705 8.82324 28.274 9.01969 28.274 9.26199C28.274 9.98774 27.6835 10.5782 26.9578 10.5782C26.7155 10.5782 26.519 10.7747 26.519 11.017C26.519 11.2593 26.7155 11.4557 26.9578 11.4557C27.6835 11.4557 28.274 12.0462 28.274 12.772C28.274 13.0143 28.4705 13.2107 28.7128 13.2107C28.9551 13.2107 29.1515 13.0143 29.1515 12.772C29.1515 12.0462 29.742 11.4557 30.4678 11.4557C30.7101 11.4557 30.9065 11.2593 30.9065 11.017C30.9065 10.7747 30.7101 10.5782 30.4678 10.5782Z" fill="#FCDE76"/>
<path d="M12.042 8.82385C11.3163 8.82385 10.7258 8.23334 10.7258 7.5076C10.7258 7.2653 10.5293 7.06885 10.287 7.06885C10.0447 7.06885 9.84826 7.2653 9.84826 7.5076C9.84826 8.23334 9.25776 8.82385 8.53201 8.82385C8.28971 8.82385 8.09326 9.0203 8.09326 9.2626C8.09326 9.5049 8.28971 9.70135 8.53201 9.70135C9.25776 9.70135 9.84826 10.2919 9.84826 11.0176C9.84826 11.2599 10.0447 11.4563 10.287 11.4563C10.5293 11.4563 10.7258 11.2599 10.7258 11.0176C10.7258 10.2919 11.3163 9.70135 12.042 9.70135C12.2843 9.70135 12.4808 9.5049 12.4808 9.2626C12.4808 9.0203 12.2843 8.82385 12.042 8.82385Z" fill="#FCDE76"/>
<path d="M10.2866 15.8438C8.10929 15.8438 6.33789 17.6151 6.33789 19.7925V30.7612C6.33789 31.0035 6.53434 31.2 6.77664 31.2H13.7966C14.0389 31.2 14.2354 31.0035 14.2354 30.7612V19.7925C14.2354 17.6151 12.464 15.8438 10.2866 15.8438Z" fill="#FCD9B1"/>
<path d="M7.65414 30.7612V19.7925C7.65414 17.8394 9.07969 16.214 10.9448 15.8996C10.7306 15.8635 10.511 15.8438 10.2866 15.8438C8.10929 15.8438 6.33789 17.6151 6.33789 19.7925V30.7612C6.33789 31.0035 6.53434 31.2 6.77664 31.2H8.09289C7.85059 31.2 7.65414 31.0035 7.65414 30.7612Z" fill="#FAB364"/>
<path d="M10.2868 13.6499C8.83525 13.6499 7.6543 14.8308 7.6543 16.2824V21.9862C7.6543 23.1958 8.63841 24.1799 9.84805 24.1799H10.7255C11.9352 24.1799 12.9193 23.1958 12.9193 21.9862V16.2824C12.9193 14.8308 11.7383 13.6499 10.2868 13.6499Z" fill="#AD7DC9"/>
<path d="M8.5318 21.9862V16.2824C8.5318 14.9804 9.48218 13.8967 10.7255 13.6871C10.5827 13.6631 10.4363 13.6499 10.2868 13.6499C8.83525 13.6499 7.6543 14.8308 7.6543 16.2824V21.9862C7.6543 23.1958 8.63841 24.1799 9.84805 24.1799H10.7255C9.51591 24.1799 8.5318 23.1958 8.5318 21.9862Z" fill="#8A6CBD"/>
<path d="M10.34 15.8438H10.2852C10.0429 15.8438 9.84644 15.6474 9.84644 15.4051C9.84644 15.1628 10.0429 14.9663 10.2852 14.9663H10.34C10.5823 14.9663 10.7788 15.1628 10.7788 15.4051C10.7788 15.6474 10.5823 15.8438 10.34 15.8438Z" fill="#F0F0F1"/>
<path d="M11.2182 17.1592H11.1634C10.9211 17.1592 10.7246 16.9628 10.7246 16.7205C10.7246 16.4782 10.9211 16.2817 11.1634 16.2817H11.2182C11.4605 16.2817 11.657 16.4782 11.657 16.7205C11.657 16.9628 11.4605 17.1592 11.2182 17.1592Z" fill="#F0F0F1"/>
<path d="M9.46234 17.1592H9.4075C9.1652 17.1592 8.96875 16.9628 8.96875 16.7205C8.96875 16.4782 9.1652 16.2817 9.4075 16.2817H9.46234C9.70464 16.2817 9.90109 16.4782 9.90109 16.7205C9.90109 16.9628 9.70464 17.1592 9.46234 17.1592Z" fill="#F0F0F1"/>
<path d="M11.2182 18.9151H11.1634C10.9211 18.9151 10.7246 18.7186 10.7246 18.4763C10.7246 18.234 10.9211 18.0376 11.1634 18.0376H11.2182C11.4605 18.0376 11.657 18.234 11.657 18.4763C11.657 18.7186 11.4605 18.9151 11.2182 18.9151Z" fill="#F0F0F1"/>
<path d="M9.46234 18.9151H9.4075C9.1652 18.9151 8.96875 18.7186 8.96875 18.4763C8.96875 18.234 9.1652 18.0376 9.4075 18.0376H9.46234C9.70464 18.0376 9.90109 18.234 9.90109 18.4763C9.90109 18.7186 9.70464 18.9151 9.46234 18.9151Z" fill="#F0F0F1"/>
<path d="M11.2182 20.6695H11.1634C10.9211 20.6695 10.7246 20.473 10.7246 20.2307C10.7246 19.9884 10.9211 19.792 11.1634 19.792H11.2182C11.4605 19.792 11.657 19.9884 11.657 20.2307C11.657 20.473 11.4605 20.6695 11.2182 20.6695Z" fill="#F0F0F1"/>
<path d="M9.46234 20.6695H9.4075C9.1652 20.6695 8.96875 20.473 8.96875 20.2307C8.96875 19.9884 9.1652 19.792 9.4075 19.792H9.46234C9.70464 19.792 9.90109 19.9884 9.90109 20.2307C9.90109 20.473 9.70464 20.6695 9.46234 20.6695Z" fill="#F0F0F1"/>
<path d="M11.2182 22.4249H11.1634C10.9211 22.4249 10.7246 22.2284 10.7246 21.9861C10.7246 21.7438 10.9211 21.5474 11.1634 21.5474H11.2182C11.4605 21.5474 11.657 21.7438 11.657 21.9861C11.657 22.2284 11.4605 22.4249 11.2182 22.4249Z" fill="#F0F0F1"/>
<path d="M9.46234 22.4249H9.4075C9.1652 22.4249 8.96875 22.2284 8.96875 21.9861C8.96875 21.7438 9.1652 21.5474 9.4075 21.5474H9.46234C9.70464 21.5474 9.90109 21.7438 9.90109 21.9861C9.90109 22.2284 9.70464 22.4249 9.46234 22.4249Z" fill="#F0F0F1"/>
<path d="M19.4995 11.0171C17.3222 11.0171 15.5508 12.7885 15.5508 14.9658V30.7608C15.5508 31.0031 15.7472 31.1996 15.9895 31.1996H23.0095C23.2518 31.1996 23.4483 31.0031 23.4483 30.7608V14.9658C23.4483 12.7885 21.6769 11.0171 19.4995 11.0171Z" fill="#FCD9B1"/>
<path d="M16.867 30.7608V14.9658C16.867 13.0127 18.2926 11.3873 20.1577 11.073C19.9435 11.0369 19.7238 11.0171 19.4995 11.0171C17.3222 11.0171 15.5508 12.7885 15.5508 14.9658V30.7608C15.5508 31.0031 15.7472 31.1996 15.9895 31.1996H17.3058C17.0635 31.1996 16.867 31.0031 16.867 30.7608Z" fill="#FAB364"/>
<path d="M19.5016 9.2627C18.0501 9.2627 16.8691 10.4436 16.8691 11.8952V17.5989C16.8691 18.8086 17.8533 19.7927 19.0629 19.7927H19.9404C21.15 19.7927 22.1341 18.8086 22.1341 17.5989V11.8952C22.1341 10.4436 20.9532 9.2627 19.5016 9.2627Z" fill="#F0F0F1"/>
<path d="M17.7466 17.5989V11.8952C17.7466 10.5932 18.697 9.50949 19.9404 9.29993C19.7976 9.27586 19.6511 9.2627 19.5016 9.2627C18.0501 9.2627 16.8691 10.4436 16.8691 11.8952V17.5989C16.8691 18.8086 17.8533 19.7927 19.0629 19.7927H19.9404C18.7308 19.7927 17.7466 18.8086 17.7466 17.5989Z" fill="#E1E0E4"/>
<path d="M16.8672 17.5987C16.8672 17.6809 16.8721 17.7621 16.881 17.842L22.1322 12.5907V11.895C22.1322 11.681 22.1059 11.4732 22.0575 11.2739L16.8672 16.4642V17.5987Z" fill="#E6608D"/>
<path d="M19.0596 19.7921H19.9371C21.1467 19.7921 22.1308 18.808 22.1308 17.5984V16.4639L18.8164 19.7783C18.8963 19.7872 18.9774 19.7921 19.0596 19.7921Z" fill="#E6608D"/>
<path d="M17.8989 19.4568L22.1331 15.2226V13.8311L17.2031 18.7611C17.3796 19.0421 17.6179 19.2804 17.8989 19.4568Z" fill="#E6608D"/>
<path d="M19.4997 9.2627C18.0481 9.2627 16.8672 10.4436 16.8672 11.8952V12.5909L20.1207 9.33739C19.9215 9.28897 19.7136 9.2627 19.4997 9.2627Z" fill="#E6608D"/>
<path d="M20.9797 9.71875L16.8672 13.8313V15.2228L21.6754 10.4145C21.4891 10.1414 21.2528 9.90511 20.9797 9.71875Z" fill="#E6608D"/>
<path d="M16.8672 16.4644V17.5989C16.8672 17.6811 16.8721 17.7622 16.881 17.8421L17.7447 16.9784V15.5869L16.8672 16.4644Z" fill="#D4506F"/>
<path d="M17.2031 18.762C17.3796 19.043 17.6179 19.2812 17.8989 19.4577L18.301 19.0556C18.0733 18.7998 17.9042 18.4907 17.8157 18.1494L17.2031 18.762Z" fill="#D4506F"/>
<path d="M19.9367 9.30026C19.7945 9.27619 19.6487 9.2627 19.4997 9.2627C18.0481 9.2627 16.8672 10.4436 16.8672 11.8952V12.5909L17.7523 11.7059C17.8391 10.4899 18.755 9.50028 19.9367 9.30026Z" fill="#D4506F"/>
<path d="M16.8672 13.8316V15.2231L17.7447 14.3456V12.9541L16.8672 13.8316Z" fill="#D4506F"/>
<path d="M28.7144 17.1602C26.537 17.1602 24.7656 18.9316 24.7656 21.1089V30.7614C24.7656 31.0037 24.9621 31.2002 25.2044 31.2002H32.2244C32.4667 31.2002 32.6631 31.0037 32.6631 30.7614V21.1089C32.6631 18.9316 30.8917 17.1602 28.7144 17.1602Z" fill="#FCD9B1"/>
<path d="M26.0819 30.7614V21.1089C26.0819 19.1558 27.5074 17.5304 29.3725 17.216C29.1583 17.18 28.9387 17.1602 28.7144 17.1602C26.537 17.1602 24.7656 18.9316 24.7656 21.1089V30.7614C24.7656 31.0037 24.9621 31.2002 25.2044 31.2002H26.5206C26.2783 31.2002 26.0819 31.0037 26.0819 30.7614Z" fill="#FAB364"/>
<path d="M28.7145 15.4043C27.263 15.4043 26.082 16.5852 26.082 18.0368V23.7405C26.082 24.9502 27.0661 25.9343 28.2758 25.9343H29.1533C30.3629 25.9343 31.347 24.9502 31.347 23.7405V18.0368C31.347 16.5852 30.1661 15.4043 28.7145 15.4043Z" fill="#F0F0F1"/>
<path d="M26.9595 23.7405V18.0368C26.9595 16.7348 27.9099 15.6511 29.1533 15.4415C29.0105 15.4175 28.864 15.4043 28.7145 15.4043C27.263 15.4043 26.082 16.5852 26.082 18.0368V23.7405C26.082 24.9502 27.0661 25.9343 28.2758 25.9343H29.1533C27.9436 25.9343 26.9595 24.9502 26.9595 23.7405Z" fill="#E1E0E4"/>
<path d="M30.4678 17.5986C30.756 17.5986 31.0278 17.5283 31.268 17.4048C30.9882 16.2751 29.9773 15.4314 28.7683 15.4062C28.7322 15.5461 28.7129 15.6926 28.7129 15.8436C28.7128 16.8113 29.5001 17.5986 30.4678 17.5986Z" fill="#38C7C2"/>
<path d="M29.592 23.7409C30.2158 23.7409 30.8092 23.6092 31.347 23.3734V22.0578C30.8093 22.2935 30.2158 22.4246 29.592 22.4246C28.1581 22.4246 26.8831 21.7329 26.082 20.666V21.9829C26.8831 23.0496 28.1583 23.7409 29.592 23.7409Z" fill="#38C7C2"/>
<path d="M30.0309 19.3538C30.5103 19.3538 30.9598 19.2247 31.3472 18.9998V18.325C31.0725 18.4225 30.7774 18.4763 30.4697 18.4763C29.0181 18.4763 27.8372 17.2954 27.8372 15.8438C27.8372 15.7446 27.8432 15.6467 27.854 15.5503C27.7782 15.5766 27.7041 15.6062 27.6317 15.6391C27.4821 15.9694 27.3984 16.3357 27.3984 16.7213C27.3984 18.1729 28.5794 19.3538 30.0309 19.3538Z" fill="#38C7C2"/>
<path d="M29.592 24.6187C28.2447 24.6187 27.0142 24.1098 26.082 23.2744V23.7412C26.082 24.9509 27.0661 25.935 28.2758 25.935H29.1533C30.1526 25.935 30.9975 25.263 31.2612 24.3474C30.7365 24.5233 30.1752 24.6187 29.592 24.6187Z" fill="#38C7C2"/>
<path d="M29.592 21.548C30.2312 21.548 30.8305 21.3755 31.347 21.0757V19.9749C30.9404 20.1402 30.4962 20.2317 30.0308 20.2317C28.0953 20.2317 26.5208 18.6572 26.5208 16.7217C26.5208 16.6741 26.5222 16.6268 26.5242 16.5796C26.2451 16.9974 26.082 17.4989 26.082 18.038C26.082 19.9734 27.6566 21.548 29.592 21.548Z" fill="#38C7C2"/>
<path d="M28.7691 15.4062C28.7572 15.4524 28.7479 15.4995 28.7397 15.547C28.8722 15.5016 29.0094 15.4664 29.1504 15.4425C29.026 15.4216 28.8988 15.4089 28.7691 15.4062Z" fill="#00B5B8"/>
<path d="M26.082 20.666V21.9829C26.3317 22.3153 26.6274 22.6112 26.9595 22.8611V21.5446C26.6273 21.2945 26.3317 20.9985 26.082 20.666Z" fill="#00B5B8"/>
<path d="M27.8475 16.0686C27.8411 15.9945 27.8372 15.9196 27.8372 15.8438C27.8372 15.7445 27.8432 15.6467 27.854 15.5503C27.7782 15.5766 27.7041 15.6062 27.6318 15.6391C27.5007 15.9284 27.4203 16.2453 27.4023 16.5786C27.5284 16.39 27.6783 16.2187 27.8475 16.0686Z" fill="#00B5B8"/>
<path d="M26.967 23.9148C26.65 23.7316 26.3531 23.5173 26.082 23.2744V23.7412C26.082 24.9509 27.0661 25.935 28.2758 25.935H29.1533C28.0021 25.935 27.0559 25.0436 26.967 23.9148Z" fill="#00B5B8"/>
<path d="M26.5208 16.7217C26.5208 16.6741 26.5222 16.6268 26.5242 16.5796C26.2451 16.9974 26.082 17.4989 26.082 18.038C26.082 18.9258 26.414 19.7371 26.9595 20.3559V18.4186C26.6803 17.9153 26.5208 17.3369 26.5208 16.7217Z" fill="#00B5B8"/>
</svg>
