<svg width="116" height="109" viewBox="0 0 116 109" fill="none" xmlns="http://www.w3.org/2000/svg">
<path d="M62.7131 1.93591C33.2829 1.93591 9.42499 25.7917 9.42499 55.2241C9.42499 84.652 33.2829 108.51 62.7131 108.51C92.1421 108.51 116 84.652 116 55.2241C116 25.7915 92.1421 1.93591 62.7131 1.93591Z" fill="#FFF3F6"/>
<path d="M53.2881 0C23.8579 0 0 23.8558 0 53.2882C0 82.7161 23.8579 106.574 53.2881 106.574C82.7171 106.574 106.575 82.7161 106.575 53.2882C106.575 23.8555 82.7171 0 53.2881 0Z" fill="white"/>
<g clip-path="url(#clip0)">
<path d="M58.1848 58.1847L58.1848 58.1848C55.5973 60.7722 51.4027 60.7723 48.816 58.1848L58.1848 58.1847ZM58.1848 58.1847C60.7714 55.5972 60.7714 51.4036 58.1848 48.8161C55.5981 46.2284 51.4035 46.2295 48.8161 48.816C46.2285 51.4026 46.2286 55.5972 48.816 58.1847H58.1848ZM36.5294 36.5294C45.9023 27.1565 61.0977 27.1565 70.4705 36.5294C79.8434 45.9023 79.8434 61.0977 70.4705 70.4705C61.0977 79.8434 45.9023 79.8434 36.5294 70.4705C27.1565 61.0977 27.1565 45.9023 36.5294 36.5294Z" fill="#FFBE18" fill-opacity="0.95" stroke="#333333"/>
<path d="M47.0478 47.0478L47.0478 47.0478C50.6107 43.4841 56.3884 43.484 59.9522 47.0478C63.5159 50.6115 63.5159 56.3885 59.9522 59.9522L59.9522 59.9522C56.3893 63.5159 50.6116 63.516 47.0478 59.9522L47.0478 59.9522C43.4841 56.3893 43.484 50.6116 47.0478 47.0478ZM51.2897 55.7094C52.5104 56.9301 54.4885 56.9302 55.7093 55.7096L55.7094 55.7094C56.9303 54.4894 56.9301 52.5103 55.7094 51.2897C54.4887 50.0689 52.5105 50.0689 51.2897 51.2897C50.0689 52.5105 50.0689 54.4887 51.2897 55.7094Z" fill="#E7ECED" stroke="#333333"/>
<path d="M65.4485 74.3138L58.7874 62.13C59.4518 61.7237 60.0824 61.2363 60.6594 60.6594C61.2361 60.0827 61.7241 59.4527 62.1304 58.7876L74.3138 65.4485C73.2824 67.2442 72.0046 68.9367 70.4706 70.4706C68.9367 72.0046 67.2442 73.2824 65.4485 74.3138Z" fill="#AC145A" stroke="#333333"/>
<path d="M41.5516 32.6863L48.2127 44.8701C47.5483 45.2764 46.9177 45.7638 46.3407 46.3407C45.764 46.9174 45.2759 47.5474 44.8697 48.2125L32.6863 41.5516C33.7177 39.7559 34.9955 38.0634 36.5294 36.5295C38.0634 34.9955 39.7559 33.7177 41.5516 32.6863Z" fill="#AC145A" stroke="#333333"/>
</g>
<defs>
<clipPath id="clip0">
<rect width="49" height="49" fill="white" transform="translate(29 29)"/>
</clipPath>
</defs>
</svg>
