<svg width="116" height="109" viewBox="0 0 116 109" fill="none" xmlns="http://www.w3.org/2000/svg">
<path d="M62.7131 1.93591C33.2829 1.93591 9.425 25.7917 9.425 55.2241C9.425 84.652 33.2829 108.51 62.7131 108.51C92.1421 108.51 116 84.652 116 55.2241C116 25.7915 92.1421 1.93591 62.7131 1.93591Z" fill="#FFF3F6"/>
<path d="M53.2881 0C23.8579 0 0 23.8558 0 53.2882C0 82.7161 23.8579 106.574 53.2881 106.574C82.7171 106.574 106.575 82.7161 106.575 53.2882C106.575 23.8555 82.7171 0 53.2881 0Z" fill="white"/>
<path d="M45.0186 77.2565L45.0186 77.2566C44.5444 77.7609 43.6975 77.4254 43.6975 76.733V67.0471C43.6975 66.5666 43.308 66.1771 42.8274 66.1771H38.5309C33.8252 66.1771 30.0102 62.3622 30.0102 57.6563V38.0207C30.0102 33.3149 33.825 29.5 38.5309 29.5H68.469C73.1747 29.5 76.9897 33.3149 76.9897 38.0207V57.6563C76.9897 62.3621 73.1748 66.1771 68.469 66.1771H55.8151C55.5754 66.1771 55.3458 66.2759 55.1811 66.4511C55.1811 66.4511 55.181 66.4512 55.181 66.4512L45.0186 77.2565Z" fill="#EC5569" stroke="#333333"/>
<path d="M63.6358 40.7069C61.3455 38.4166 57.6322 38.4166 55.3418 40.7069L54.0481 42.0006C53.7397 42.3091 53.2394 42.3091 52.931 42.0006L51.6579 40.7276C49.3677 38.4373 45.6544 38.4373 43.364 40.7276C41.0737 43.0179 41.0737 46.7311 43.364 49.0215L52.9318 58.5893C53.2402 58.8977 53.7404 58.8977 54.0489 58.5893L63.6357 49.0008C65.9261 46.7105 65.9261 42.9973 63.6358 40.7069Z" fill="#EC5569"/>
<path d="M63.6358 40.7069C61.3455 38.4166 57.6322 38.4166 55.3418 40.7069L54.0481 42.0006C53.7397 42.3091 53.2394 42.3091 52.931 42.0006L51.6579 40.7276C49.3677 38.4373 45.6544 38.4373 43.364 40.7276C41.0737 43.0179 41.0737 46.7311 43.364 49.0215L52.9318 58.5893C53.2402 58.8977 53.7404 58.8977 54.0489 58.5893L63.6357 49.0008C65.9261 46.7105 65.9261 42.9973 63.6358 40.7069Z" fill="#FFF5F5"/>
<path d="M46.432 49.0215C44.1417 46.7312 44.1417 43.0179 46.432 40.7275C47.1833 39.9763 48.0881 39.4731 49.045 39.2148C47.0844 38.6853 44.9032 39.1885 43.3643 40.7275C41.074 43.0178 41.074 46.7311 43.3643 49.0215L52.932 58.5892C53.2405 58.8977 53.7407 58.8977 54.0491 58.5892L55.0244 57.6138L46.432 49.0215Z" fill="#FFF5F5"/>
</svg>
