<svg width="116" height="109" viewBox="0 0 116 109" fill="none" xmlns="http://www.w3.org/2000/svg">
<path d="M62.7131 1.93591C33.2829 1.93591 9.425 25.7917 9.425 55.2241C9.425 84.652 33.2829 108.51 62.7131 108.51C92.1421 108.51 116 84.652 116 55.2241C116 25.7915 92.1421 1.93591 62.7131 1.93591Z" fill="#FFF3F6"/>
<path d="M53.2881 0C23.8579 0 0 23.8558 0 53.2882C0 82.7161 23.8579 106.574 53.2881 106.574C82.7171 106.574 106.575 82.7161 106.575 53.2882C106.575 23.8555 82.7171 0 53.2881 0Z" fill="white"/>
<g clip-path="url(#clip0)">
<path d="M74.2816 35.7259L74.2829 35.7287C74.3704 35.9146 74.3341 36.1363 74.1908 36.2857C70.2248 40.4166 63.9572 42.9018 56.0003 43.399L56.0003 43.3988L55.99 43.3997C55.9898 43.3997 55.9897 43.3997 55.9895 43.3997L55.9819 43.3998L55.9692 43.3998C55.8406 43.3998 55.7193 43.3511 55.6311 43.2667L55.6311 43.2667L55.6262 43.2622C55.5265 43.1693 55.4695 43.0382 55.4695 42.9001V37.0001C55.4695 36.7238 55.6936 36.4999 55.9692 36.4999C60.8605 36.4999 72.6384 35.5265 72.924 35.5024L73.7947 35.4407L73.8038 35.4401L73.8129 35.4391C73.9899 35.42 74.1899 35.5279 74.2816 35.7259Z" fill="#F44336" stroke="#333333"/>
<path d="M32.2297 35.5227L32.2249 35.5222C32.0157 35.5035 31.8269 35.6135 31.7374 35.8075L31.7357 35.8111L31.7357 35.8111C31.6478 35.9978 31.6854 36.221 31.8333 36.3711L32.2297 35.5227ZM32.2297 35.5227C34.6241 35.7141 45.3355 36.5002 49.9693 36.5002C50.2454 36.5002 50.4694 36.7242 50.4694 37.0003V42.9003C50.4694 43.0385 50.4124 43.1696 50.3126 43.2624L50.3126 43.2624L50.3078 43.267C50.2197 43.3513 50.0984 43.4001 49.9693 43.4001L49.9569 43.4001L49.9494 43.4C49.9492 43.4 49.9491 43.4 49.9489 43.4M32.2297 35.5227L49.9455 43.3997M49.9489 43.4L49.9455 43.3997M49.9489 43.4L49.9527 43.4003C49.9475 43.3999 49.9456 43.3999 49.9489 43.4ZM49.9455 43.3997L49.9384 43.3992M49.9455 43.3997L49.9384 43.3992M49.9384 43.3992C44.462 43.0595 36.9454 41.5495 31.8334 36.3712L49.9384 43.3992Z" fill="#F44336" stroke="#333333"/>
<path d="M50.3641 32.5481L50.3654 32.5487C50.5933 32.6582 50.703 32.9179 50.6236 33.1554L50.6228 33.1579C50.5262 33.4522 50.4697 33.7309 50.4697 34.0001V37.0001C50.4697 37.2757 50.2458 37.4999 49.9696 37.4999C45.3178 37.4999 34.5687 36.712 32.1499 36.5175L32.1474 36.5173C32.0315 36.5085 31.9201 36.4577 31.834 36.3731L31.6273 36.1665L31.6274 36.1664L31.6223 36.1615C31.477 36.0203 31.4304 35.8096 31.5027 35.6206L31.5028 35.6203C31.5736 35.435 31.7497 35.3077 31.9494 35.2995C34.4963 35.2021 36.3035 34.0016 38.0851 32.8181L38.1265 32.7906L38.1267 32.7905C39.8976 31.6131 41.5925 30.5 43.7898 30.5C46.49 30.5 48.2378 31.4283 49.568 32.1391L49.5711 32.1407C49.6 32.1559 49.6287 32.171 49.6574 32.1861C49.8979 32.3126 50.134 32.4368 50.3641 32.5481Z" fill="#E53935" stroke="#333333"/>
<path d="M73.5859 36.1209L73.8528 36.4399L73.0047 36.4991L73.0047 36.4991L72.9979 36.4997C72.5104 36.5404 60.9274 37.4999 55.9693 37.4999C55.6936 37.4999 55.4696 37.2759 55.4696 37.0001V34.0001C55.4696 33.7308 55.413 33.4517 55.314 33.156C55.2356 32.9181 55.3456 32.6586 55.5731 32.5491C55.808 32.4374 56.0507 32.3088 56.2929 32.1805C56.3184 32.1671 56.3439 32.1536 56.3694 32.1401L56.3694 32.1401L56.3712 32.1391C57.7015 31.4283 59.4493 30.5 62.1495 30.5C64.3468 30.5 66.0413 31.6131 67.8147 32.7907L67.8433 32.8097C69.6276 33.9984 71.4372 35.2038 73.9901 35.3017C74.1196 35.307 74.2392 35.3617 74.3268 35.4506L73.5859 36.1209Z" fill="#E53935" stroke="#333333"/>
<path d="M55.4693 34.0002V48.0001H55.9693H56.4693C56.4693 47.2657 56.786 46.6027 57.2977 46.1572L57.3032 46.1524L57.3086 46.1475C57.7403 45.7488 58.3205 45.5001 58.9693 45.5001C60.3335 45.5001 61.4329 46.5779 61.4693 47.9463V49.9999H61.9693H62.4693C62.4693 49.2657 62.7859 48.603 63.2978 48.157L63.3032 48.1523L63.3084 48.1475C63.7404 47.749 64.3206 47.4999 64.9693 47.4999C66.3335 47.4999 67.4329 48.5778 67.4693 49.9462V52.0002H67.9693H68.4693C68.4693 51.2659 68.786 50.6028 69.2977 50.1573L69.3032 50.1525L69.3086 50.1476C69.7403 49.7489 70.3205 49.5002 70.9693 49.5002C72.3532 49.5002 73.4693 50.6163 73.4693 52.0002V64.28C73.4693 71.0241 67.9934 76.4999 61.2493 76.4999C58.0016 76.4999 54.8887 75.2123 52.6029 72.9264L38.6936 59.0171C40.7137 57.356 43.7302 57.4681 45.6159 59.3535C45.6159 59.3535 45.616 59.3535 45.616 59.3535L47.2357 60.9736L47.2357 60.9736C48.4288 62.1667 50.4693 61.3283 50.4693 59.6401V34.0002C50.4693 32.6163 51.5854 31.5002 52.9693 31.5002C54.3532 31.5002 55.4693 32.6163 55.4693 34.0002Z" fill="#FFCC80" stroke="#333333"/>
</g>
<defs>
<clipPath id="clip0">
<rect width="48" height="48" fill="white" transform="translate(29 30)"/>
</clipPath>
</defs>
</svg>
