<svg width="155" height="159" viewBox="0 0 155 159" fill="none" xmlns="http://www.w3.org/2000/svg">
<path d="M81.0009 0C40.1313 0 7 33.1283 7 74.0009C7 114.867 40.1313 147.998 81.0009 147.998C121.869 147.998 155 114.867 155 74.0009C155 33.128 121.869 0 81.0009 0Z" fill="#FFF3F6"/>
<path d="M74.0009 11C33.1313 11 0 44.1283 0 85.0009C0 125.867 33.1313 158.998 74.0009 158.998C114.869 158.998 148 125.867 148 85.0009C148 44.128 114.869 11 74.0009 11Z" fill="#FEEFEA"/>
<path d="M98.2243 81.5789C95.9376 80.5987 93.2013 81.8733 92.1078 84.4276L78.6062 116.549C77.6165 118.864 78.4884 121.464 80.5621 122.353C82.6331 123.24 85.1182 122.081 86.1103 119.763L100.705 88.2526C101.8 85.7013 100.505 82.5579 98.2243 81.5789Z" fill="#DBB595"/>
<path d="M107.966 85.5487C105.578 84.5673 102.578 85.532 101.522 88.103L86.4214 126.711C85.4636 129.039 86.4429 131.654 88.6109 132.544C90.7759 133.433 93.3087 132.263 94.2668 129.933L110.785 92.1043C111.839 89.5339 110.355 86.5304 107.966 85.5487Z" fill="#DBB595"/>
<path d="M117.56 89.6809C115.253 88.7654 112.263 89.9583 111.243 92.5439L98.9351 124.482C97.9114 127.063 98.9563 129.898 101.265 130.814C103.575 131.73 106.275 130.378 107.299 127.796L120.472 96.2022C121.494 93.6172 119.87 90.5966 117.56 89.6809Z" fill="#DBB595"/>
<path d="M127.399 92.6001C125.214 91.7712 122.158 92.9855 121.172 95.5783L115.064 114.266C114.208 116.519 115.052 118.928 116.947 119.65C118.843 120.369 121.074 119.126 121.929 116.874L128.186 98.6507C129.174 96.054 129.581 93.43 127.399 92.6001Z" fill="#DBB595"/>
<path d="M104.782 56.2705C104.782 56.2705 96.0467 61.8319 91.6013 64.4571C89.3367 65.8051 86.5297 70.9038 83.0666 75.4495C79.7424 79.8183 75.5565 82.9492 76.0126 84.6736C77.2636 89.4045 83.9689 86.1588 84.7322 85.7239C91.2144 82.0152 97.2283 74.0493 97.2283 74.0493L108.184 70.9271L104.782 56.2705Z" fill="#DBB595"/>
<path d="M75.7331 85.4481C80.3646 84.3835 80.8729 78.0615 80.8729 78.0615C73.8115 84.1309 75.7331 85.4481 75.7331 85.4481Z" fill="#AC145A"/>
<path d="M119.058 113.77C117.66 113.297 116.357 113.418 115.764 115.169C115.737 115.249 115.619 115.779 115.596 115.863C115.112 117.611 115.915 118.831 117.249 119.282C118.544 119.721 119.861 119.349 120.58 117.711C120.636 117.584 120.778 117.009 120.821 116.883C121.415 115.132 120.454 114.244 119.058 113.77Z" fill="#E8C7AF"/>
<path d="M118.975 113.971C117.639 113.496 116.384 113.593 115.788 115.267C115.761 115.344 115.435 116.536 115.411 116.617C114.921 118.29 114.967 120.246 116.626 120.836C118.284 121.427 119.46 120.031 120.176 118.467C120.231 118.346 120.582 117.111 120.625 116.99C121.221 115.315 120.311 114.447 118.975 113.971Z" fill="#AC145A"/>
<path d="M119.06 114.013C117.725 113.538 116.469 113.635 115.874 115.309C115.846 115.386 115.677 115.855 115.654 115.937C115.163 117.609 115.917 118.793 117.193 119.247C118.431 119.688 119.702 119.351 120.418 117.787C120.474 117.665 120.667 117.153 120.71 117.032C121.306 115.357 120.395 114.489 119.06 114.013Z" fill="#AC145A"/>
<path d="M104.057 123.715C102.373 123.088 100.783 123.188 99.9964 125.297C99.9618 125.394 99.7981 126.034 99.7667 126.136C99.1132 128.246 100.046 129.76 101.652 130.359C103.212 130.941 104.83 130.536 105.765 128.569C105.839 128.416 106.034 127.721 106.091 127.57C106.877 125.46 105.739 124.343 104.057 123.715Z" fill="#E8C7AF"/>
<path d="M103.949 123.957C102.341 123.329 100.81 123.402 100.023 125.418C99.986 125.51 99.5461 126.95 99.5135 127.047C98.8552 129.066 98.8406 131.448 100.838 132.227C102.835 133.007 104.317 131.352 105.245 129.474C105.318 129.329 105.79 127.838 105.847 127.692C106.634 125.676 105.557 124.585 103.949 123.957Z" fill="#AC145A"/>
<path d="M104.051 124.011C102.442 123.383 100.912 123.455 100.125 125.471C100.088 125.564 99.8655 126.129 99.8336 126.227C99.1744 128.246 100.05 129.714 101.585 130.314C103.077 130.896 104.637 130.532 105.566 128.654C105.638 128.508 105.892 127.891 105.949 127.746C106.736 125.729 105.66 124.639 104.051 124.011Z" fill="#AC145A"/>
<path d="M91.5709 125.473C89.9333 124.735 88.3381 124.729 87.414 126.782C87.3722 126.876 87.167 127.504 87.1282 127.603C86.3356 129.665 87.1664 131.238 88.7288 131.941C90.2477 132.626 91.8889 132.331 92.952 130.429C93.0356 130.282 93.2757 129.602 93.3431 129.454C94.2678 127.401 93.2077 126.211 91.5709 125.473Z" fill="#E8C7AF"/>
<path d="M91.4465 125.707C89.884 124.975 88.3511 124.945 87.4321 126.904C87.3888 126.994 86.8543 128.401 86.8158 128.496C86.0247 130.466 85.8523 132.842 87.7921 133.753C89.7331 134.664 91.3221 133.111 92.373 131.299C92.4553 131.158 93.0257 129.702 93.0919 129.56C94.0121 127.601 93.0093 126.442 91.4465 125.707Z" fill="#AC145A"/>
<path d="M91.5453 125.768C89.9822 125.035 88.4493 125.005 87.5303 126.964C87.4879 127.055 87.2278 127.604 87.1896 127.699C86.3979 129.669 87.1738 131.193 88.6659 131.893C90.1147 132.573 91.6965 132.314 92.7474 130.502C92.8297 130.361 93.1238 129.763 93.1906 129.621C94.1094 127.662 93.108 126.502 91.5453 125.768Z" fill="#AC145A"/>
<path d="M83.5484 115.524C81.9113 114.786 80.317 114.78 79.392 116.832C79.3502 116.926 79.145 117.555 79.1071 117.654C78.3145 119.716 79.1444 121.289 80.7074 121.992C82.2266 122.677 83.8673 122.381 84.931 120.48C85.0145 120.332 85.2546 119.652 85.3211 119.504C86.2458 117.452 85.1863 116.262 83.5484 115.524Z" fill="#E8C7AF"/>
<path d="M83.4246 115.757C81.8621 115.025 80.3292 114.995 79.4102 116.954C79.3678 117.044 78.8324 118.451 78.7948 118.546C78.0034 120.516 77.8298 122.892 79.7711 123.802C81.7112 124.714 83.3008 123.161 84.352 121.349C84.4334 121.208 85.0043 119.752 85.07 119.61C85.9899 117.651 84.9876 116.491 83.4246 115.757Z" fill="#AC145A"/>
<path d="M83.5235 115.818C81.9601 115.085 80.4281 115.055 79.5082 117.015C79.4667 117.104 79.2057 117.654 79.1678 117.749C78.3759 119.719 79.1517 121.243 80.6438 121.944C82.0935 122.624 83.6738 122.364 84.7262 120.552C84.8076 120.411 85.1018 119.813 85.168 119.672C86.0879 117.712 85.0865 116.552 83.5235 115.818Z" fill="#AC145A"/>
<path d="M99.8527 68.251C99.8527 68.251 97.6107 71.608 96.4614 73.6987C95.324 75.767 92.9186 82.4064 92.9186 82.4064C92.9186 82.4064 95.5793 76.517 97.0708 74.0173C98.5524 71.534 100.378 68.8523 100.378 68.8523L99.8527 68.251Z" fill="#CEA98D"/>
<path d="M119.424 27.582L113.413 43.9803C111.602 46.1307 102.522 57.7871 102.522 57.7871L91.029 87.2476L107.409 94.3529L120.976 97.3931L128.37 98.2844C128.37 98.2844 134.875 84.8732 137.507 76.2722C140.083 67.8574 140.385 63.0078 141.188 54.9563C136.198 44.1763 128.694 34.8001 119.424 27.582Z" fill="#DBB595"/>
<path d="M45.4777 57.7875C45.4777 57.7875 36.3983 46.1314 34.5874 43.9807L28.5762 27.583C19.3065 34.8011 11.802 44.1773 6.8125 54.9573C7.6152 63.0088 7.91708 67.8584 10.4928 76.2729C13.1253 84.8739 19.6307 98.2851 19.6307 98.2851L27.0239 97.3938L40.5911 94.3536L56.9715 87.2483L45.4777 57.7875Z" fill="#DBB595"/>
<path d="M69.3939 116.549L55.8923 84.4281C54.7987 81.8738 52.0625 80.5992 49.7758 81.5794C47.4948 82.5584 46.2008 85.7015 47.2958 88.2534L61.89 119.764C62.8819 122.082 65.3669 123.241 67.4383 122.354C69.5114 121.465 70.3836 118.865 69.3939 116.549Z" fill="#DBB595"/>
<path d="M61.5786 126.711L46.4784 88.103C45.4225 85.532 42.4217 84.5673 40.0335 85.5487C37.6445 86.5304 36.1617 89.5339 37.215 92.1039L53.7338 129.933C54.6916 132.263 57.2244 133.433 59.3894 132.544C61.5571 131.654 62.5364 129.039 61.5786 126.711Z" fill="#DBB595"/>
<path d="M49.0647 124.482L36.7569 92.5439C35.7367 89.9586 32.7469 88.7654 30.4396 89.6809C28.1302 90.5966 26.506 93.6171 27.5277 96.2021L40.7009 127.796C41.7252 130.378 44.4247 131.73 46.735 130.814C49.0435 129.898 50.0887 127.063 49.0647 124.482Z" fill="#DBB595"/>
<path d="M32.9363 114.266L26.8278 95.5785C25.8423 92.9858 22.7857 91.7714 20.6013 92.6004C18.4187 93.4299 18.8259 96.054 19.8135 98.6509L26.0705 116.874C26.926 119.126 29.1575 120.369 31.0526 119.65C32.9479 118.928 33.7918 116.519 32.9363 114.266Z" fill="#DBB595"/>
<path d="M64.9332 75.4497C61.4701 70.9041 58.6628 65.8051 56.3988 64.4574C51.9534 61.8321 43.2179 56.2708 43.2179 56.2708L39.8156 70.9276L50.7715 74.0499C50.7715 74.0499 56.7851 82.0158 63.2676 85.7244C64.0315 86.159 70.7362 89.405 71.9872 84.6741C72.4433 82.9494 68.2574 79.8182 64.9332 75.4497Z" fill="#DBB595"/>
<path d="M67.1273 78.0615C67.1273 78.0615 67.6353 84.3835 72.2669 85.4481C72.2669 85.4481 74.1885 84.1309 67.1273 78.0615Z" fill="#AC145A"/>
<path d="M32.4038 115.863C32.3808 115.779 32.2633 115.249 32.2362 115.169C31.6435 113.418 30.3396 113.297 28.9424 113.77C27.5458 114.244 26.5853 115.132 27.1786 116.883C27.2216 117.009 27.3633 117.584 27.4202 117.711C28.1388 119.349 29.4558 119.721 30.7513 119.282C32.0846 118.831 32.8879 117.611 32.4038 115.863Z" fill="#E8C7AF"/>
<path d="M32.589 116.617C32.5649 116.536 32.2388 115.344 32.2114 115.267C31.6157 113.593 30.3605 113.496 29.0244 113.971C27.689 114.447 26.7795 115.315 27.3752 116.989C27.4181 117.11 27.7683 118.346 27.8238 118.467C28.5397 120.031 29.7156 121.427 31.3735 120.836C33.0329 120.246 33.0785 118.29 32.589 116.617Z" fill="#AC145A"/>
<path d="M32.3459 115.936C32.3226 115.854 32.1535 115.385 32.1263 115.308C31.5307 113.634 30.2754 113.537 28.9403 114.012C27.6045 114.488 26.6939 115.356 27.2901 117.031C27.3337 117.151 27.5267 117.664 27.5822 117.785C28.2978 119.349 29.5691 119.687 30.8076 119.246C32.0828 118.793 32.8372 117.608 32.3459 115.936Z" fill="#AC145A"/>
<path d="M48.2333 126.136C48.2023 126.034 48.0385 125.394 48.0036 125.297C47.217 123.188 45.6262 123.088 43.9427 123.715C42.2606 124.343 41.1235 125.46 41.9095 127.57C41.9659 127.721 42.1607 128.416 42.2346 128.569C43.1698 130.536 44.7877 130.941 46.3478 130.359C47.9541 129.761 48.8871 128.246 48.2333 126.136Z" fill="#E8C7AF"/>
<path d="M48.4865 127.047C48.454 126.95 48.014 125.51 47.9773 125.418C47.1901 123.402 45.6593 123.329 44.0509 123.957C42.4434 124.585 41.3656 125.676 42.1531 127.692C42.2101 127.838 42.682 129.328 42.7548 129.474C43.6831 131.351 45.1653 133.007 47.1621 132.227C49.1594 131.448 49.1451 129.066 48.4865 127.047Z" fill="#AC145A"/>
<path d="M48.1664 126.227C48.1348 126.129 47.9116 125.564 47.875 125.471C47.0887 123.455 45.5578 123.383 43.9491 124.011C42.3401 124.639 41.2639 125.729 42.0511 127.746C42.1078 127.891 42.3616 128.508 42.4344 128.653C43.3624 130.531 44.9231 130.896 46.4151 130.313C47.9498 129.714 48.8253 128.246 48.1664 126.227Z" fill="#AC145A"/>
<path d="M60.8716 127.603C60.8328 127.504 60.6275 126.876 60.5858 126.782C59.6617 124.729 58.0667 124.735 56.4288 125.473C54.7924 126.211 53.7319 127.401 54.6566 129.454C54.724 129.602 54.9639 130.282 55.0477 130.429C56.1108 132.331 57.752 132.626 59.2709 131.941C60.8334 131.238 61.6644 129.665 60.8716 127.603Z" fill="#E8C7AF"/>
<path d="M61.1842 128.495C61.1454 128.4 60.6109 126.993 60.5679 126.903C59.6489 124.944 58.1159 124.974 56.5535 125.706C54.9913 126.44 53.9879 127.6 54.9078 129.559C54.9743 129.701 55.5444 131.157 55.6267 131.298C56.6779 133.11 58.2669 134.663 60.2076 133.752C62.148 132.841 61.9752 130.466 61.1842 128.495Z" fill="#AC145A"/>
<path d="M60.8102 127.699C60.772 127.604 60.5119 127.055 60.4698 126.964C59.5505 125.005 58.0176 125.035 56.4545 125.768C54.8921 126.502 53.8904 127.662 54.8088 129.621C54.8759 129.763 55.1698 130.361 55.2521 130.502C56.3027 132.314 57.8845 132.573 59.3336 131.893C60.826 131.193 61.6021 129.669 60.8102 127.699Z" fill="#AC145A"/>
<path d="M68.8929 117.654C68.855 117.555 68.6498 116.926 68.608 116.832C67.683 114.78 66.0889 114.786 64.4516 115.524C62.8137 116.262 61.7541 117.452 62.6788 119.505C62.7454 119.652 62.9852 120.332 63.069 120.48C64.1327 122.382 65.7733 122.677 67.2925 121.993C68.8556 121.288 69.6854 119.716 68.8929 117.654Z" fill="#E8C7AF"/>
<path d="M69.2055 118.546C69.1676 118.452 68.6322 117.045 68.5901 116.955C67.6711 114.996 66.1382 115.025 64.5757 115.758C63.0127 116.492 62.0101 117.652 62.93 119.611C62.996 119.753 63.5666 121.209 63.648 121.35C64.6992 123.162 66.2891 124.715 68.2289 123.803C70.1705 122.893 69.9969 120.517 69.2055 118.546Z" fill="#AC145A"/>
<path d="M68.8321 117.749C68.7943 117.654 68.5335 117.104 68.4918 117.014C67.5719 115.055 66.0398 115.085 64.4765 115.818C62.9134 116.552 61.9118 117.712 62.8317 119.671C62.8982 119.813 63.192 120.411 63.2738 120.551C64.3255 122.363 65.9059 122.623 67.3559 121.943C68.8482 121.243 69.6241 119.719 68.8321 117.749Z" fill="#AC145A"/>
<path d="M51.5386 73.6987C50.389 71.6083 48.1476 68.251 48.1476 68.251L47.6223 68.8523C47.6223 68.8523 49.4479 71.534 50.9295 74.0173C52.4206 76.5169 55.0814 82.4064 55.0814 82.4064C55.0814 82.4064 52.676 75.767 51.5386 73.6987Z" fill="#CEA98D"/>
<path d="M108.569 79.1342C106.435 73.849 102.667 72.8876 99.0796 74.3361C95.4935 75.7843 93.4487 79.093 95.5827 84.3781C97.1544 88.2697 103.221 94.9231 106.808 93.4746C110.395 92.0264 110.031 82.7542 108.569 79.1342Z" fill="white"/>
<path d="M107.342 86.6819C106.379 84.2965 104.883 84.366 103.265 85.0192C101.648 85.6725 100.521 86.6619 101.484 89.0471C102.447 91.4307 105.776 94.0449 106.751 93.6512C107.768 93.2407 108.305 89.0653 107.342 86.6819Z" fill="#F4E028"/>
<path d="M126.314 84.0278C124.409 80.6613 120.862 79.0669 115.901 81.8732C112.248 83.9398 106.445 90.8238 108.349 94.1903C110.254 97.5571 119.399 95.9851 122.797 94.0629C127.758 91.2563 128.218 87.3946 126.314 84.0278Z" fill="white"/>
<path d="M116.269 89.5729C115.41 88.0549 114.282 87.0672 112.043 88.3338C109.806 89.5997 107.649 93.2422 108.166 94.1568C108.706 95.1107 112.916 95.0979 115.153 93.8322C117.393 92.5654 117.128 91.0918 116.269 89.5729Z" fill="#F4E028"/>
<path d="M123.689 98.9809C120.327 96.469 111.689 93.9279 109.374 97.0265C107.059 100.126 112.18 107.864 115.308 110.2C119.874 113.612 123.594 112.479 125.909 109.381C128.224 106.281 128.256 102.392 123.689 98.9809Z" fill="white"/>
<path d="M116.223 98.0513C114.163 96.5127 109.961 96.0044 109.332 96.8465C108.676 97.7244 110.382 101.573 112.442 103.112C114.502 104.652 115.745 103.816 116.789 102.419C117.833 101.021 118.283 99.5908 116.223 98.0513Z" fill="#F4E028"/>
<path d="M106.446 98.0931C102.616 97.5493 98.2852 105.756 97.7363 109.621C96.9348 115.264 99.7146 117.984 103.544 118.528C107.374 119.072 110.801 117.233 111.602 111.59C112.192 107.435 110.276 98.6372 106.446 98.0931Z" fill="white"/>
<path d="M106.584 97.97C105.499 97.8158 102.941 101.16 102.58 103.705C102.218 106.252 103.548 106.941 105.275 107.186C107.002 107.432 108.473 107.14 108.835 104.593C109.196 102.048 107.625 98.1176 106.584 97.97Z" fill="#F4E028"/>
<path d="M105.54 95.1281C104.714 91.3493 95.5126 90.1528 91.6989 90.9866C86.1301 92.2039 84.5504 95.7572 85.3769 99.5362C86.2026 103.315 89.1214 105.885 94.6896 104.668C98.7893 103.772 106.366 98.9071 105.54 95.1281Z" fill="white"/>
<path d="M105.705 95.2137C105.471 94.1428 101.445 92.9132 98.9334 93.4618C96.4205 94.0109 96.238 95.4973 96.6106 97.2021C96.9831 98.9059 97.77 100.182 100.283 99.6329C102.794 99.084 105.93 96.2407 105.705 95.2137Z" fill="#F4E028"/>
<path d="M111.179 94.4006C110.39 92.4476 108.084 91.5358 106.03 92.365C103.978 93.1937 102.952 95.4512 103.741 97.4041C104.53 99.3573 106.835 100.27 108.887 99.4408C110.941 98.6116 111.968 96.3538 111.179 94.4006Z" fill="#F4E028"/>
<path d="M109.913 94.9116C109.429 93.7113 107.936 93.1812 106.581 93.7283C105.227 94.275 104.522 95.6925 105.006 96.8928C105.491 98.0938 106.983 98.6238 108.337 98.0771C109.693 97.53 110.398 96.1122 109.913 94.9116Z" fill="#E2CB23"/>
</svg>
