<svg width="165" height="153" viewBox="0 0 165 153" fill="none" xmlns="http://www.w3.org/2000/svg">
<path d="M74.5009 0C33.3552 0 0 33.3526 0 74.5018C0 115.645 33.3552 149 74.5009 149C115.645 149 149 115.645 149 74.5018C149 33.3523 115.645 0 74.5009 0Z" fill="#FEEFEA"/>
<path d="M90.5009 4C49.3552 4 16 37.3526 16 78.5018C16 119.645 49.3552 153 90.5009 153C131.645 153 165 119.645 165 78.5018C165 37.3523 131.645 4 90.5009 4Z" fill="#FFF3F6"/>
<path d="M162.61 63.7609L162.426 63.6514L156.696 73.8524L150.729 91.6851L148.507 101.51C148.507 101.51 153.763 104.762 160.357 108.467C163.357 100.393 165 91.6587 165 82.54C165 76.053 164.169 69.7602 162.61 63.7609Z" fill="#DBB595"/>
<path d="M155.004 45.254L130.817 32.0294C127.838 30.3777 124.22 31.1911 122.737 33.8582C121.257 36.5213 122.472 40.0246 125.454 41.6808L162.426 63.6513L162.53 63.4656C160.824 57.0098 158.275 50.8973 155.004 45.254Z" fill="#DBB595"/>
<path d="M162.53 63.4656L162.426 63.6514L162.61 63.7609C162.584 63.6622 162.556 63.5643 162.53 63.4656Z" fill="#DBB595"/>
<path d="M162.986 65.2853L116.064 41.1366C113.064 39.527 109.41 40.4823 107.913 43.277C106.417 46.0656 107.641 49.6361 110.643 51.2467L159.255 78.7045C161.054 79.6673 163.127 79.6397 164.911 78.9224C164.687 74.2503 164.032 69.6926 162.986 65.2853Z" fill="#DBB595"/>
<path d="M158.6 79.2608L117.331 58.2828C114.001 56.5483 110.041 57.5628 108.491 60.542C106.939 63.5224 108.384 67.3424 111.715 69.0775L152.401 91.1708C155.738 92.9035 160.026 91.1366 161.578 88.1559C163.129 85.1781 161.938 80.9905 158.6 79.2608Z" fill="#DBB595"/>
<path d="M153.143 92.2001L128.845 81.3967C125.933 79.9341 122.574 80.7367 121.341 83.1846C120.111 85.6362 121.474 88.8099 124.387 90.2731L148.039 101.212C151.397 102.9 154.871 103.812 156.289 100.989C157.706 98.1648 156.495 93.8851 153.143 92.2001Z" fill="#DBB595"/>
<path d="M127.316 81.7028C127.225 81.6537 126.621 81.4104 126.525 81.3654C124.541 80.4281 123.019 81.3849 122.332 83.2002C121.663 84.9644 121.939 86.8778 123.767 88.129C123.909 88.2278 124.563 88.5114 124.706 88.5901C126.68 89.6814 127.834 88.4541 128.555 86.5524C129.275 84.6499 129.29 82.7932 127.316 81.7028Z" fill="#E8C7AF"/>
<path d="M127.398 82.2331C127.299 82.186 125.74 81.5821 125.634 81.5389C123.451 80.6472 120.814 80.4404 119.79 82.59C118.766 84.739 120.48 86.5147 122.486 87.6936C122.642 87.7855 124.255 88.4272 124.412 88.5025C126.582 89.5362 127.876 88.4311 128.701 86.6999C129.525 84.9692 129.568 83.2665 127.398 82.2331Z" fill="#DD8F8C"/>
<path d="M127.41 82.2165C127.309 82.1685 126.687 81.8693 126.579 81.8263C124.35 80.9151 122.617 81.7843 121.813 83.472C121.032 85.1111 121.316 86.9066 123.364 88.1108C123.523 88.2047 124.2 88.5418 124.36 88.6183C126.576 89.6736 127.898 88.5451 128.741 86.7769C129.582 85.01 129.626 83.2718 127.41 82.2165Z" fill="#DD8F8C"/>
<path d="M115.695 59.8814C115.567 59.8223 114.714 59.5257 114.579 59.4713C111.784 58.3414 109.581 59.3509 108.536 61.3542C107.52 63.3016 107.845 65.454 110.407 66.9294C110.606 67.0451 111.529 67.3901 111.728 67.4839C114.504 68.7854 116.193 67.459 117.288 65.3596C118.384 63.2602 118.471 61.1828 115.695 59.8814Z" fill="#E8C7AF"/>
<path d="M115.922 59.617C115.803 59.5555 113.927 58.7628 113.8 58.7073C111.175 57.5418 107.972 57.1925 106.647 59.7725C105.321 62.3507 107.344 64.5742 109.742 66.083C109.928 66.201 111.869 67.0414 112.057 67.1389C114.661 68.4767 116.277 67.1788 117.345 65.1019C118.411 63.0255 118.526 60.9542 115.922 59.617Z" fill="#DD8F8C"/>
<path d="M115.906 59.5715C115.783 59.5076 115.027 59.1162 114.896 59.0588C112.181 57.852 110.011 58.8607 108.957 60.9113C107.933 62.904 108.217 65.128 110.698 66.6891C110.891 66.8104 111.713 67.2519 111.907 67.3527C114.6 68.7361 116.272 67.3932 117.377 65.2448C118.481 63.0964 118.599 60.9545 115.906 59.5715Z" fill="#DD8F8C"/>
<path d="M115.119 42.0901C115.009 42.0239 114.264 41.6774 114.146 41.6146C111.714 40.3241 109.677 41.1835 108.616 43.098C107.583 44.9591 107.739 47.1067 109.94 48.7253C110.11 48.8517 110.916 49.2499 111.088 49.3551C113.492 50.8147 115.088 49.6102 116.201 47.6046C117.314 45.5966 117.524 43.5491 115.119 42.0901Z" fill="#E8C7AF"/>
<path d="M115.664 42.4713C115.55 42.4017 113.731 41.4871 113.608 41.422C111.066 40.0849 107.894 39.5239 106.4 42.0097C104.905 44.4934 106.775 46.8471 109.068 48.5117C109.246 48.642 111.126 49.6102 111.308 49.7192C113.816 51.2268 115.516 50.0397 116.719 48.0378C117.921 46.0373 118.173 43.9786 115.664 42.4713Z" fill="#DD8F8C"/>
<path d="M115.717 42.5221C115.6 42.4513 114.885 42.0185 114.76 41.953C112.177 40.5934 109.985 41.4401 108.817 43.3817C107.683 45.2681 107.816 47.4667 110.146 49.1595C110.327 49.2909 111.104 49.7772 111.288 49.8885C113.838 51.4211 115.565 50.2142 116.788 48.1807C118.01 46.146 118.267 44.0543 115.717 42.5221Z" fill="#DD8F8C"/>
<path d="M130.91 33.0904C130.788 33.0245 129.959 32.6774 129.829 32.6146C127.126 31.3242 124.864 32.1832 123.684 34.0985C122.536 35.9597 122.709 38.1066 125.156 39.7249C125.345 39.8522 126.239 40.2503 126.431 40.3552C129.103 41.8145 130.875 40.6104 132.113 38.6036C133.349 36.5972 133.581 34.5491 130.91 33.0904Z" fill="#E8C7AF"/>
<path d="M130.161 33.0546C130.046 32.9852 128.227 32.0704 128.104 32.0056C125.562 30.6681 122.39 30.1066 120.896 32.5924C119.402 35.0769 121.271 37.4304 123.564 39.095C123.742 39.2252 125.622 40.1932 125.803 40.3025C128.312 41.8107 130.011 40.623 131.215 38.6213C132.417 36.6206 132.67 34.5625 130.161 33.0546Z" fill="#DD8F8C"/>
<path d="M130.215 33.1056C130.098 33.0348 129.383 32.6014 129.258 32.5366C126.674 31.176 124.481 32.023 123.314 33.9653C122.179 35.8523 122.313 38.0511 124.643 39.7436C124.824 39.8754 125.601 40.3622 125.785 40.4733C128.336 42.0061 130.063 40.7995 131.286 38.7649C132.509 36.7302 132.765 34.6382 130.215 33.1056Z" fill="#DD8F8C"/>
<path d="M67.3124 130.242C67.2926 130.313 67.2809 130.385 67.2809 130.459C67.2809 130.586 67.292 130.505 67.3124 130.242ZM113.767 130.229C113.788 130.503 113.8 130.589 113.8 130.459C113.8 130.381 113.789 130.304 113.767 130.229ZM90.5405 80.3184C82.1389 80.3184 70.1022 81.4712 70.1022 81.4712C70.1022 81.4712 67.623 126.302 67.3124 130.242C68.6234 125.56 112.378 125.556 113.766 130.229C113.442 126.193 110.895 81.1765 110.895 81.1765C110.895 81.1765 98.8917 80.3184 90.5405 80.3184Z" fill="#DD8F8C"/>
<path d="M90.5 75C77.9716 75 70 78.3575 70 82.5C70 86.6416 77.9716 90 90.5 90C103.028 90 111 86.6419 111 82.5C111 78.3575 103.028 75 90.5 75Z" fill="#E29898"/>
<path d="M90.4997 77C84.1478 77 79 79.0146 79 81.4999C79 83.9854 84.1481 86 90.4997 86C96.8525 86 102 83.9854 102 81.4999C102 79.0146 96.8525 77 90.4997 77Z" fill="#444444"/>
<path d="M90.5 121C76.1392 121 67 125.03 67 130C67 134.971 76.1392 139 90.5 139C104.861 139 114 134.971 114 130C114 125.03 104.861 121 90.5 121Z" fill="#DD8F8C"/>
<path d="M99.7008 30H81.3004L79 81H102L99.7008 30Z" fill="#444444"/>
<path d="M90.4992 27C85.8051 27 82 28.7909 82 30.9998C82 33.2091 85.8051 35 90.4992 35C95.1943 35 99 33.2091 99 30.9998C99 28.7909 95.1943 27 90.4992 27Z" fill="#4F4E4E"/>
<path d="M89.7602 118.804C93.1328 118.804 95.8669 114.402 95.8669 108.972C95.8669 103.542 93.1328 99.1406 89.7602 99.1406C86.3875 99.1406 83.6534 103.542 83.6534 108.972C83.6534 114.402 86.3875 118.804 89.7602 118.804Z" fill="#D10566"/>
<path d="M98.7986 116.143C95.5682 113.486 91.5787 112.999 89.8868 115.056C88.1916 117.113 89.4378 120.936 92.6658 123.593C95.8948 126.251 99.8861 126.738 101.577 124.68C103.272 122.623 102.027 118.801 98.7986 116.143Z" fill="#D10566"/>
<path d="M89.8099 115.061C88.117 113.004 84.127 113.491 80.8979 116.149C77.6687 118.807 76.4234 122.629 78.1162 124.685C79.8091 126.742 83.7992 126.255 87.0283 123.597C90.2574 120.939 91.5028 117.117 89.8099 115.061Z" fill="#D10566"/>
<path d="M89.5 120C91.433 120 93 117.538 93 114.5C93 111.462 91.433 109 89.5 109C87.567 109 86 111.462 86 114.5C86 117.538 87.567 120 89.5 120Z" fill="#CE0658"/>
<path d="M90 118C91.1046 118 92 116.433 92 114.5C92 112.567 91.1046 111 90 111C88.8954 111 88 112.567 88 114.5C88 116.433 88.8954 118 90 118Z" fill="#E20E64"/>
<path d="M105.535 113.151C105.477 112.223 105.232 111.172 104.758 110.566C103.823 109.373 101.249 106.343 100.035 105.932C98.7671 105.505 95.5658 104.815 94.2251 107.422C92.8843 110.029 91.5067 112.114 89.5698 113.157C89.5698 113.157 89.6404 113.161 89.7664 113.167C89.6404 113.173 89.5698 113.177 89.5698 113.177C91.5067 114.219 92.8843 116.304 94.2251 118.911C95.5661 121.518 98.6942 120.848 100.035 120.401C101.375 119.954 103.823 116.961 104.758 115.768C105.232 115.161 105.477 114.11 105.535 113.182C105.535 113.177 105.531 113.171 105.531 113.167C105.531 113.161 105.535 113.156 105.535 113.151Z" fill="#DB1675"/>
<path d="M89.8937 113.165C87.9586 112.122 86.5807 110.037 85.2396 107.431C83.8986 104.824 80.7705 105.493 79.4291 105.941C78.0884 106.387 75.6404 109.381 74.7064 110.573C74.2318 111.181 73.9863 112.231 73.9281 113.159C73.9281 113.165 73.9323 113.17 73.9332 113.175C73.9323 113.18 73.9281 113.186 73.9281 113.191C73.986 114.119 74.2318 115.17 74.7064 115.777C75.6404 116.969 78.2151 119.999 79.4291 120.409C80.6957 120.837 83.8989 121.527 85.2396 118.92C86.5807 116.314 87.9586 114.228 89.8937 113.186C89.8937 113.186 89.8243 113.182 89.6968 113.176C89.824 113.168 89.8937 113.165 89.8937 113.165Z" fill="#DB1675"/>
<path d="M89.0002 111C88.4485 111 88 111.896 88 113C88 114.105 88.4485 115 89.0002 115C89.5526 115 90 114.105 90 113C90 111.896 89.5526 111 89.0002 111Z" fill="#F9EDF3"/>
</svg>
