<svg width="159" height="154" viewBox="0 0 159 154" fill="none" xmlns="http://www.w3.org/2000/svg">
<path d="M73.5009 7C32.9074 7 0 39.9045 0 80.5009C0 121.091 32.9074 153.998 73.5009 153.998C114.093 153.998 147 121.091 147 80.5009C147 39.9042 114.093 7 73.5009 7Z" fill="#FFF3F6"/>
<path d="M85.5009 0C44.9074 0 12 32.9045 12 73.5009C12 114.091 44.9074 146.998 85.5009 146.998C126.093 146.998 159 114.091 159 73.5009C159 32.9042 126.093 0 85.5009 0Z" fill="#FEEFEA"/>
<g clip-path="url(#clip0)">
<path d="M109.798 105.552H71.729V123H109.798V105.552Z" fill="#FFD7E0"/>
<path d="M97.1083 123H71.729V105.552H86.6806C92.4401 105.552 97.1083 110.22 97.1083 115.979V123Z" fill="#E7ECED"/>
<path d="M86.798 118.241C88.9881 118.241 90.7635 116.466 90.7635 114.276C90.7635 112.086 88.9881 110.31 86.798 110.31C84.6079 110.31 82.8325 112.086 82.8325 114.276C82.8325 116.466 84.6079 118.241 86.798 118.241Z" fill="#DD8F8C"/>
<path d="M84.2664 47.9756C86.2222 47.1159 87.5911 45.168 87.5911 42.8966C87.5911 39.8304 85.1055 37.3448 82.0394 37.3448C79.7663 37.3448 77.8185 38.7137 76.9603 40.6695L84.2664 47.9756Z" fill="#E4BE9E"/>
<path d="M92.1974 55.9066C94.1532 55.0469 95.5221 53.0991 95.5221 50.8276C95.5221 47.7615 93.0365 45.2759 89.9704 45.2759C87.6974 45.2759 85.7495 46.6448 84.8914 48.6006L92.1974 55.9066Z" fill="#E4BE9E"/>
<path d="M100.128 63.8377C102.084 62.9779 103.453 61.0301 103.453 58.7586C103.453 55.6925 100.968 53.2069 97.9014 53.2069C95.6284 53.2069 93.6805 54.5758 92.8224 56.5316L100.128 63.8377Z" fill="#E4BE9E"/>
<path d="M108.06 71.7687C110.015 70.909 111.384 68.9611 111.384 66.6897C111.384 63.6235 108.899 61.1379 105.832 61.1379C103.559 61.1379 101.612 62.5068 100.753 64.4626L108.06 71.7687Z" fill="#E4BE9E"/>
<path d="M75.6946 83.3448H59.8325C56.779 83.3448 54.2808 80.8465 54.2808 77.7931C54.2808 74.7396 56.779 72.2413 59.8325 72.2413H75.6946C78.748 72.2413 81.2463 74.7396 81.2463 77.7931C81.2463 80.8465 78.748 83.3448 75.6946 83.3448Z" fill="#E4BE9E"/>
<path d="M108.428 81.0657L90.7889 98.7043C89.3676 100.126 87.0629 100.126 85.6432 98.7043L70.2856 83.3451H59.8341C58.9172 83.7939 56.4158 82.1744 57.3754 82.9977L74.5255 100.081C74.6429 100.198 74.7793 100.283 74.903 100.389V105.552H106.627V98.3982C109.512 96.2266 111.386 92.7862 111.386 88.8968C111.384 85.8941 110.263 83.1595 108.428 81.0657Z" fill="#E4BE9E"/>
<path d="M71.875 35.5824L47.1984 60.259L59.2408 72.3015C59.4391 72.2809 59.6311 72.2412 59.8325 72.2412H75.6946C78.748 72.2412 81.2463 74.7395 81.2463 77.7929C81.2463 80.8464 78.748 83.3447 75.6946 83.3447H70.284L80.3644 93.425L105.039 68.7484L71.875 35.5824Z" fill="#B8CBFF"/>
<path d="M71.875 35.5826L68.3583 32.0659C66.9371 30.6447 64.6323 30.6447 63.2127 32.0659L43.6817 51.5953C42.2605 53.0166 42.2605 55.3213 43.6817 56.7426L47.1983 60.2592L71.875 35.5826Z" fill="#E7ECED"/>
<path d="M110.318 74.0273L105.039 68.7484L80.3643 93.425L85.6416 98.7023C87.0629 100.124 89.3676 100.124 90.7873 98.7023L110.317 79.173C111.739 77.7533 111.739 75.4485 110.318 74.0273Z" fill="#E7ECED"/>
<path d="M96.3152 87.3104C98.0673 87.3104 99.4877 85.8901 99.4877 84.138C99.4877 82.3859 98.0673 80.9656 96.3152 80.9656C94.5632 80.9656 93.1428 82.3859 93.1428 84.138C93.1428 85.8901 94.5632 87.3104 96.3152 87.3104Z" fill="white"/>
<path d="M55.867 48.4484C55.4609 48.4484 55.0548 48.2929 54.7455 47.9836C54.1253 47.3634 54.1253 46.3609 54.7455 45.7407L57.9179 42.5683C58.5381 41.9481 59.5406 41.9481 60.1608 42.5683C60.781 43.1885 60.781 44.191 60.1608 44.8112L56.9884 47.9836C56.6791 48.2929 56.273 48.4484 55.867 48.4484Z" fill="#B8CBFF"/>
</g>
<defs>
<clipPath id="clip0">
<rect width="92" height="92" fill="white" transform="translate(31 31)"/>
</clipPath>
</defs>
</svg>
