<svg width="160" height="176" viewBox="0 0 160 176" fill="none" xmlns="http://www.w3.org/2000/svg">
<path d="M86.5009 1.99805C45.9074 1.99805 13 34.9025 13 75.499C13 116.089 45.9074 148.996 86.5009 148.996C127.093 148.996 160 116.089 160 75.499C160 34.9022 127.093 1.99805 86.5009 1.99805Z" fill="#FEEFEA"/>
<path d="M73.5009 0C32.9074 0 0 32.9045 0 73.5009C0 114.091 32.9074 146.998 73.5009 146.998C114.093 146.998 147 114.091 147 73.5009C147 32.9042 114.093 0 73.5009 0Z" fill="#FFF3F6"/>
<path d="M88.9363 1.62793L84.0706 14.5121C81.8334 17.1173 70.6072 31.2443 70.6072 31.2443L56.2203 67.0864L76.1413 75.9584L92.6739 79.8322L101.693 81.0087C101.693 81.0087 109.795 64.7073 113.112 54.2348C116.377 43.9276 116.789 38.0012 117.879 28.0724L122.36 18.5954C113.039 10.2946 101.592 4.33294 88.9363 1.62793Z" fill="#DBB595"/>
<path d="M65.075 60.2493C62.2941 59.0248 58.9373 60.5491 57.5718 63.6559L40.7021 102.724C39.466 105.539 40.5 108.725 43.0219 109.835C45.54 110.943 48.5887 109.557 49.8283 106.738L68.0253 68.4292C69.3923 65.3257 67.8496 61.4717 65.075 60.2493Z" fill="#DBB595"/>
<path d="M76.9261 65.2128C74.0211 63.9862 70.3446 65.1287 69.0244 68.2559L50.1246 115.226C48.928 118.058 50.0932 121.263 52.7304 122.376C55.3628 123.488 58.4704 122.089 59.6677 119.255L80.2897 73.2517C81.6076 70.126 79.8314 66.44 76.9261 65.2128Z" fill="#DBB595"/>
<path d="M88.5932 70.3734C85.7857 69.2277 82.1205 70.6492 80.8444 73.7942L65.4345 112.654C64.1534 115.793 65.3963 119.268 68.205 120.413C71.0145 121.559 74.3281 119.94 75.6095 116.8L92.0715 78.3717C93.3502 75.2273 91.4028 71.5191 88.5932 70.3734Z" fill="#DBB595"/>
<path d="M100.573 74.0553C97.9152 73.0172 94.1688 74.4636 92.9342 77.6183L85.2527 100.368C84.1807 103.109 85.1836 106.061 87.4881 106.966C89.7949 107.866 92.5345 106.375 93.6059 103.634L101.464 81.4539C102.701 78.2939 103.23 75.0944 100.573 74.0553Z" fill="#DBB595"/>
<path d="M73.3841 29.4197C73.3841 29.4197 62.6506 36.1078 57.1905 39.2608C54.4082 40.8802 50.9204 47.0739 46.6369 52.5841C42.5254 57.8797 37.3764 61.6537 37.9124 63.7649C39.3846 69.5578 47.6116 65.6733 48.5487 65.1515C56.5094 60.6994 63.9486 51.0425 63.9486 51.0425L77.3652 47.3595L73.3841 29.4197Z" fill="#DBB595"/>
<path d="M37.5622 64.7071C43.2309 63.4615 43.9268 55.7471 43.9268 55.7471C35.2308 63.0752 37.5622 64.7071 37.5622 64.7071Z" fill="#AC145A"/>
<path d="M90.1356 99.8095C88.4353 99.2151 86.8419 99.3479 86.0971 101.479C86.0636 101.577 85.9131 102.222 85.8838 102.325C85.2714 104.454 86.2378 105.952 87.8605 106.52C89.4376 107.071 91.0511 106.633 91.9483 104.641C92.0188 104.486 92.1995 103.786 92.2528 103.632C92.9986 101.501 91.8357 100.404 90.1356 99.8095Z" fill="#E8C7AF"/>
<path d="M90.0326 100.054C88.4075 99.4574 86.8734 99.5611 86.1259 101.599C86.0915 101.692 85.6788 103.144 85.6491 103.243C85.0299 105.28 85.064 107.669 87.0828 108.409C89.1008 109.15 90.5534 107.46 91.4458 105.558C91.5151 105.411 91.9581 103.906 92.0123 103.759C92.7598 101.722 91.6579 100.651 90.0326 100.054Z" fill="#AC145A"/>
<path d="M90.1357 100.106C88.5106 99.5101 86.9765 99.6138 86.229 101.651C86.1946 101.745 85.9825 102.316 85.9532 102.415C85.3334 104.452 86.2414 105.907 87.7925 106.476C89.3002 107.03 90.8571 106.632 91.7495 104.731C91.8189 104.583 92.0606 103.959 92.1148 103.812C92.8629 101.775 91.7614 100.703 90.1357 100.106Z" fill="#AC145A"/>
<path d="M71.6984 111.777C69.6502 110.991 67.7057 111.094 66.7209 113.661C66.6768 113.779 66.4697 114.559 66.4303 114.683C65.6066 117.252 66.7286 119.112 68.6829 119.861C70.5823 120.591 72.5626 120.117 73.7276 117.724C73.8194 117.539 74.065 116.693 74.1358 116.508C75.1213 113.941 73.7456 112.564 71.6984 111.777Z" fill="#E8C7AF"/>
<path d="M71.5636 112.071C69.6072 111.286 67.736 111.355 66.7514 113.808C66.7061 113.92 66.1509 115.673 66.1109 115.792C65.2825 118.249 65.2363 121.158 67.6666 122.134C70.0955 123.11 71.9259 121.106 73.0817 118.824C73.1721 118.647 73.7661 116.832 73.8375 116.655C74.8223 114.202 73.5202 112.857 71.5636 112.071Z" fill="#AC145A"/>
<path d="M71.6877 112.137C69.7311 111.352 67.8601 111.422 66.8756 113.875C66.8302 113.987 66.5508 114.675 66.5114 114.794C65.6822 117.251 66.7339 119.056 68.6017 119.806C70.4167 120.535 72.3265 120.108 73.4828 117.825C73.5729 117.648 73.8899 116.898 73.9613 116.721C74.9465 114.268 73.6443 112.924 71.6877 112.137Z" fill="#AC145A"/>
<path d="M56.4286 113.776C54.4374 112.855 52.4902 112.829 51.3368 115.325C51.2847 115.439 51.0266 116.204 50.9783 116.325C49.9858 118.834 50.9816 120.764 52.8816 121.642C54.7283 122.496 56.7359 122.155 58.0576 119.845C58.1616 119.666 58.4626 118.838 58.5455 118.659C59.6995 116.163 58.4193 114.697 56.4286 113.776Z" fill="#E8C7AF"/>
<path d="M56.2741 114.06C54.3744 113.146 52.5028 113.092 51.3568 115.473C51.3041 115.582 50.6339 117.295 50.5856 117.41C49.5957 119.807 49.3563 122.706 51.7162 123.842C54.0746 124.977 56.0341 123.1 57.3392 120.899C57.4411 120.728 58.1546 118.957 58.2375 118.785C59.3841 116.403 58.1741 114.975 56.2741 114.06Z" fill="#AC145A"/>
<path d="M56.3939 114.134C54.4938 113.221 52.6226 113.166 51.4769 115.548C51.4238 115.657 51.0997 116.324 51.0523 116.44C50.0612 118.837 50.991 120.707 52.8045 121.58C54.5667 122.428 56.5011 122.13 57.8062 119.929C57.9081 119.758 58.274 119.031 58.3573 118.859C59.5036 116.478 58.2939 115.049 56.3939 114.134Z" fill="#AC145A"/>
<path d="M46.7502 101.53C44.7589 100.609 42.8118 100.583 41.6584 103.079C41.6062 103.193 41.3482 103.958 41.2999 104.079C40.3073 106.588 41.3031 108.518 43.2032 109.396C45.0498 110.25 47.0574 109.909 48.3791 107.599C48.4831 107.42 48.7841 106.592 48.8671 106.413C50.0211 103.917 48.7409 102.451 46.7502 101.53Z" fill="#E8C7AF"/>
<path d="M46.5958 101.814C44.696 100.9 42.8245 100.846 41.6785 103.227C41.6257 103.336 40.9555 105.049 40.9073 105.164C39.9174 107.561 39.678 110.46 42.0378 111.596C44.3962 112.731 46.3558 110.853 47.6609 108.653C47.7628 108.482 48.4762 106.711 48.5592 106.539C49.7058 104.157 48.4958 102.729 46.5958 101.814Z" fill="#AC145A"/>
<path d="M46.7154 101.889C44.8154 100.976 42.9441 100.921 41.7984 103.303C41.7454 103.412 41.4212 104.079 41.3738 104.195C40.3828 106.592 41.3125 108.462 43.126 109.335C44.8883 110.183 46.8226 109.885 48.1277 107.684C48.2297 107.513 48.5956 106.786 48.6788 106.614C49.8251 104.233 48.6154 102.804 46.7154 101.889Z" fill="#AC145A"/>
<path d="M67.2217 43.9912C67.2217 43.9912 64.4444 48.0647 63.0163 50.6035C61.6028 53.1162 58.5864 61.196 58.5864 61.196C58.5864 61.196 61.9065 54.0353 63.7567 51.0002C65.5951 47.985 67.8563 44.7319 67.8563 44.7319L67.2217 43.9912Z" fill="#CEA98D"/>
<path d="M79.0003 133.8C79.0282 133.636 79.0706 133.472 79.1263 133.312C79.5343 132.143 80.6624 131.176 82.1543 130.475C82.2957 130.408 82.2851 130.264 82.1412 130.295C80.3758 130.675 79.0858 130.376 78.6651 129.242C78.6317 129.152 78.4281 129.221 78.4092 129.329C78.1739 130.676 76.9927 131.833 75.2729 132.642C75.1646 132.693 75.1699 132.775 75.1721 132.769C75.1754 132.813 75.2236 132.836 75.2863 132.822C76.1894 132.626 77.4279 132.52 78.1998 133.125C78.4462 133.319 78.6293 133.575 78.7442 133.887C78.7587 133.927 78.815 133.94 78.8778 133.918C78.9407 133.897 78.9922 133.847 79.0003 133.8Z" fill="#F4A32C"/>
<g clip-path="url(#clip0)">
<path d="M44.1547 83.1247C43.595 83.1398 43.0582 83.1161 42.5591 83.0543C38.9008 82.601 37.1496 80.0993 36.9691 76.4718C36.9519 76.1282 36.4016 76.2362 36.2836 76.6064C34.8384 81.1462 31.6475 84.7823 26.7808 86.5393C26.3937 86.679 26.322 87.1883 26.6906 87.1796C31.2821 87.0705 33.6485 89.6105 33.8604 93.7912C33.8737 94.0546 34.1823 93.9954 34.1656 93.9925C34.3344 93.9592 34.4949 93.8172 34.546 93.656C35.2818 91.3342 36.89 88.0605 40.3725 85.65C41.485 84.8804 42.7274 84.2464 44.0651 83.7652C44.2344 83.7044 44.3734 83.5459 44.3954 83.3887C44.4174 83.2314 44.3161 83.1203 44.1547 83.1247Z" fill="#F4A32C"/>
<path d="M44.1547 83.1247C43.595 83.1398 43.0582 83.1161 42.5591 83.0543C38.9008 82.601 37.1496 80.0993 36.9691 76.4718C36.9519 76.1282 36.4016 76.2362 36.2836 76.6064C34.8384 81.1462 31.6475 84.7823 26.7808 86.5393C26.3937 86.679 26.322 87.1883 26.6906 87.1796C31.2821 87.0705 33.6485 89.6105 33.8604 93.7912C33.8737 94.0546 34.1823 93.9954 34.1656 93.9925C34.3344 93.9592 34.4949 93.8172 34.546 93.656C35.2818 91.3342 36.89 88.0605 40.3725 85.65C41.485 84.8804 42.7274 84.2464 44.0651 83.7652C44.2344 83.7044 44.3734 83.5459 44.3954 83.3887C44.4174 83.2314 44.3161 83.1203 44.1547 83.1247Z" fill="#F4A32C"/>
<path d="M30.598 84.5552C29.3928 85.4118 28.0987 86.0618 26.7817 86.5372C26.3947 86.6769 26.3229 87.1862 26.6916 87.1774C31.2833 87.0682 33.6499 89.6077 33.8619 93.7878C33.8752 94.0512 34.1838 93.992 34.1671 93.9891C34.3359 93.9558 34.4964 93.8138 34.5475 93.6526C34.9548 92.3675 35.6303 90.7907 36.7423 89.2301C35.955 86.2352 33.8623 84.6854 30.598 84.5552Z" fill="#E89528"/>
<path d="M27.6741 94.5718C26.3791 94.4174 25.6165 93.649 25.3648 92.4296C25.3195 92.2108 25.0552 92.2651 25.0648 92.2664C24.9126 92.2962 24.765 92.4151 24.7004 92.5598C24.1001 93.9039 23.0802 95.0422 21.6379 95.7549C21.3111 95.9165 21.2521 96.3322 21.551 96.371C22.8601 96.5411 23.6145 97.3238 23.8607 98.5133C23.9062 98.7327 24.1702 98.6776 24.1613 98.6764C24.3138 98.6462 24.4614 98.5269 24.5256 98.3818C24.975 97.3671 25.6346 96.5213 26.486 95.8679C26.4861 95.8678 26.4861 95.8678 26.4861 95.8678C27.417 95.1531 27.8137 95.2297 27.869 94.8335C27.8886 94.6934 27.8101 94.588 27.6741 94.5718Z" fill="#F7E7A1"/>
<path d="M23.1252 94.7777C23.1159 94.7764 23.1074 94.7739 23.0986 94.7718C22.6528 95.1721 22.16 95.4972 21.6379 95.7552C21.3111 95.9167 21.2521 96.3323 21.5511 96.3711C22.8603 96.541 23.6148 97.3234 23.8612 98.5125C23.9066 98.7318 24.1706 98.6766 24.1618 98.6754C24.6521 98.5784 24.4686 98.0821 25.4301 96.8963C25.1756 95.7061 24.4132 94.9448 23.1252 94.7777Z" fill="#EAD786"/>
<path d="M25.1123 80.6331C23.8122 80.478 23.054 79.7053 22.8029 78.4909C22.7577 78.272 22.4935 78.3264 22.503 78.3277C22.3509 78.3575 22.2033 78.4764 22.1387 78.6211C21.5396 79.9623 20.5214 81.1019 19.0762 81.8163C18.7493 81.9778 18.6903 82.3935 18.9893 82.4324C20.3015 82.6028 21.0533 83.3883 21.299 84.5746C21.3444 84.794 21.6085 84.7389 21.5995 84.7377C21.7519 84.7075 21.8996 84.5881 21.9639 84.4432C22.7079 82.7632 23.8339 82.0189 23.9244 81.9291C24.8527 81.2164 25.2522 81.2889 25.3072 80.8949C25.3268 80.7547 25.2482 80.6493 25.1123 80.6331Z" fill="#F4D44E"/>
<path d="M20.4197 80.9319C19.3588 81.8376 18.858 81.7409 18.7979 82.167C18.7783 82.3062 18.8554 82.4114 18.9898 82.4288C20.3022 82.5991 21.0541 83.3842 21.2999 84.5701C21.3454 84.7894 21.6095 84.7342 21.6005 84.733C22.0663 84.6409 21.9143 84.1763 22.7916 83.0501C22.3408 81.0033 20.5768 81.0032 20.4197 80.9319Z" fill="#E8C842"/>
</g>
<g clip-path="url(#clip1)">
<path d="M94.8381 128.385C94.9001 128.093 94.9866 127.802 95.0953 127.522C95.8921 125.464 97.8948 123.872 100.493 122.813C100.739 122.712 100.733 122.45 100.486 122.485C97.452 122.926 95.2861 122.201 94.6713 120.091C94.6224 119.923 94.2702 120.02 94.2286 120.213C93.7097 122.616 91.5999 124.544 88.6055 125.766C88.4168 125.843 88.4188 125.991 88.423 125.981C88.4247 126.062 88.5046 126.109 88.6124 126.093C90.1645 125.866 92.2789 125.849 93.5372 127.053C93.9389 127.438 94.2275 127.927 94.3952 128.508C94.4164 128.581 94.5108 128.613 94.6195 128.583C94.7283 128.553 94.8202 128.47 94.8381 128.385Z" fill="#F4A32C"/>
<path d="M82.3027 119.41C82.8435 117.995 84.0979 116.811 85.8462 115.921C86.1601 115.761 86.1518 115.517 86.1476 115.527C86.1449 115.386 86.0179 115.295 85.8344 115.303C84.1291 115.379 82.8143 114.916 82.1942 113.798C82.0536 113.544 81.4942 113.698 81.3649 114.027C80.799 115.464 79.5268 116.647 77.821 117.516C77.5065 117.676 77.5159 117.92 77.5198 117.91C77.5229 118.052 77.6505 118.142 77.8347 118.133C79.123 118.072 80.1249 118.315 80.8123 118.855C80.8124 118.855 80.8124 118.855 80.8124 118.855C81.5644 119.445 81.3584 119.894 81.8917 119.746C82.0804 119.694 82.2459 119.558 82.3027 119.41Z" fill="#F7E7A1"/>
<path d="M83.169 114.826C83.1731 114.815 83.1788 114.805 83.1839 114.795C82.7434 114.543 82.4186 114.203 82.1941 113.798C82.0536 113.544 81.4941 113.699 81.3648 114.027C80.7989 115.464 79.5266 116.647 77.8208 117.516C77.5062 117.676 77.5157 117.92 77.5196 117.91C77.5296 118.365 78.262 117.92 79.6577 118.298C81.3672 117.42 82.6123 116.24 83.169 114.826Z" fill="#EAD786"/>
<path d="M102.208 109.561C102.751 108.14 104.01 106.959 105.752 106.072C106.066 105.912 106.057 105.668 106.053 105.678C106.05 105.537 105.923 105.446 105.74 105.454C104.038 105.53 102.721 105.069 102.1 103.949C101.959 103.695 101.4 103.849 101.27 104.178C100.703 105.619 99.4276 106.8 97.7265 107.667C97.4119 107.827 97.4213 108.071 97.4252 108.061C97.4283 108.203 97.5559 108.293 97.74 108.284C99.873 108.183 100.617 108.959 100.718 109.006C101.468 109.594 101.267 110.044 101.797 109.897C101.986 109.845 102.151 109.709 102.208 109.561Z" fill="#F4D44E"/>
<path d="M102.977 104.878C101.994 104.252 102.254 103.686 101.681 103.844C101.493 103.896 101.328 104.03 101.27 104.178C100.703 105.619 99.4275 106.8 97.7263 107.667C97.4117 107.827 97.4211 108.071 97.425 108.061C97.4346 108.493 98.1151 108.096 99.4498 108.418C102.393 106.895 102.839 105.076 102.977 104.878Z" fill="#E8C842"/>
</g>
<path d="M41.4998 132.215C43.1172 131.35 44.6161 131.292 45.89 131.916C46.1188 132.028 46.3796 131.794 46.3676 131.8C46.5189 131.666 46.5931 131.477 46.5508 131.332C46.1585 129.989 46.416 128.468 47.5036 126.915C47.75 126.564 47.4827 126.243 47.1067 126.44C45.4605 127.305 43.9594 127.348 42.7159 126.74C42.4865 126.628 42.2267 126.862 42.2378 126.856C42.0864 126.99 42.0126 127.18 42.0555 127.325C42.3561 128.336 42.2781 129.393 41.8237 130.464C41.8237 130.464 41.8237 130.464 41.8237 130.464C41.3271 131.636 40.8081 131.881 41.0639 132.187C41.1543 132.295 41.3299 132.306 41.4998 132.215Z" fill="#F7E7A1"/>
<path d="M58.7692 137.271C60.393 136.402 61.8905 136.35 63.1595 136.971C63.3882 137.083 63.649 136.849 63.637 136.856C63.7883 136.722 63.8625 136.533 63.8203 136.388C63.4288 135.047 63.6833 133.527 64.773 131.971C65.0194 131.619 64.7521 131.298 64.3761 131.496C62.7259 132.363 61.2255 132.402 59.9853 131.796C59.7559 131.683 59.496 131.918 59.5073 131.912C59.3559 132.046 59.282 132.236 59.3249 132.38C59.8225 134.055 59.1249 135.392 59.093 135.52C58.5979 136.688 58.0788 136.939 58.3332 137.242C58.4238 137.35 58.5994 137.362 58.7692 137.271Z" fill="#F4D44E"/>
<path d="M63.6786 133.56C64.1704 132.164 64.8255 131.854 64.551 131.526C64.4614 131.418 64.2877 131.406 64.1188 131.495C62.4692 132.362 60.9694 132.4 59.7296 131.794C59.5004 131.682 59.2405 131.916 59.2518 131.91C58.7895 132.32 59.3394 132.515 59.2369 133.921C61.4074 134.947 63.4401 133.629 63.6786 133.56Z" fill="#E8C842"/>
<path d="M31.2929 114.867C30.1014 114.36 29.5299 113.138 29.5268 111.417C29.5261 111.108 29.2664 111.121 29.2752 111.125C29.126 111.131 28.964 111.26 28.8753 111.442C28.051 113.139 26.8706 114.458 25.3735 115.101C25.0343 115.246 24.8988 115.8 25.1732 115.921C26.375 116.453 26.936 117.693 26.9397 119.372C26.9404 119.682 27.1999 119.667 27.1918 119.663C27.3413 119.657 27.5034 119.528 27.5919 119.345C28.2107 118.063 28.9951 117.06 29.9236 116.364C29.9236 116.364 29.9236 116.364 29.9236 116.364C30.9387 115.602 31.2981 115.797 31.4264 115.269C31.4718 115.082 31.418 114.921 31.2929 114.867Z" fill="#F7E7A1"/>
<defs>
<clipPath id="clip0">
<rect width="30.1486" height="23.2047" fill="white" transform="matrix(0.879114 -0.172502 -0.150787 1.0686 19.499 77.1984)"/>
</clipPath>
<clipPath id="clip1">
<rect width="24.2861" height="37.5884" fill="white" transform="matrix(0.0199367 1.01464 -0.887769 0.245091 108.37 101.998)"/>
</clipPath>
</defs>
</svg>
